SplineFontDB: 3.0
FontName: CISFCamouflageKit
FullName: CISF Camouflage Kit
FamilyName: CISF Camouflage Kit
Weight: Regular
Copyright: Copyright (c) 2015, Robert Jablonski/Cannot Into Space Fonts, All Rights Reserved.
Version: 1.27
ItalicAngle: 0
UnderlinePosition: -100
UnderlineWidth: 50
Ascent: 800
Descent: 200
InvalidEm: 0
sfntRevision: 0x0001451f
LayerCount: 2
Layer: 0 0 "Back" 1
Layer: 1 0 "Fore" 0
XUID: [1021 604 120746000 19983]
StyleMap: 0x0000
FSType: 0
OS2Version: 4
OS2_WeightWidthSlopeOnly: 0
OS2_UseTypoMetrics: 1
CreationTime: 1429470650
ModificationTime: 1437328055
PfmFamily: 17
TTFWeight: 400
TTFWidth: 5
LineGap: 90
VLineGap: 0
Panose: 2 0 5 3 0 0 0 0 0 0
OS2TypoAscent: 800
OS2TypoAOffset: 0
OS2TypoDescent: -200
OS2TypoDOffset: 0
OS2TypoLinegap: 90
OS2WinAscent: 905
OS2WinAOffset: 0
OS2WinDescent: 187
OS2WinDOffset: 0
HheadAscent: 905
HheadAOffset: 0
HheadDescent: -187
HheadDOffset: 0
OS2SubXSize: 650
OS2SubYSize: 699
OS2SubXOff: 0
OS2SubYOff: 140
OS2SupXSize: 650
OS2SupYSize: 699
OS2SupXOff: 0
OS2SupYOff: 479
OS2StrikeYSize: 49
OS2StrikeYPos: 258
OS2CapHeight: 732
OS2XHeight: 723
OS2Vendor: 'CiSf'
OS2CodePages: 00000001.00000000
OS2UnicodeRanges: 00000001.00000000.00000000.00000000
DEI: 91125
LangName: 1033 "" "" "" "CISF Camouflage Kit v1.27" "" "" "" "" "Cannot Into Space Fonts" "Robert Jablonski, Jasper" "" "" "" "SIL Open Font License (OFL)" "http://scripts.sil.org/OFL"
Encoding: UnicodeBmp
UnicodeInterp: none
NameList: AGL For New Fonts
DisplaySize: -48
AntiAlias: 1
FitToEm: 0
WinInfo: 64 16 4
BeginPrivate: 7
BlueValues 16 [-9 225 653 798]
BlueScale 10 0.00423077
BlueShift 2 15
StdHW 5 [231]
StdVW 5 [171]
StemSnapH 38 [69 75 81 111 126 135 156 174 231 276]
StemSnapV 40 [51 156 171 213 237 264 300 345 363 510]
EndPrivate
BeginChars: 65537 96

StartChar: .notdef
Encoding: 65536 -1 0
Width: 500
Flags: MW
HStem: 0 50<100 400 100 450> 483 50<100 400 100 100>
VStem: 50 50<50 50 50 483> 400 50<50 483 483 483>
LayerCount: 2
Fore
SplineSet
100 50 m 1
 400 50 l 1
 400 483 l 1
 100 483 l 1
 100 50 l 1
50 0 m 1
 50 533 l 1
 450 533 l 1
 450 0 l 1
 50 0 l 1
EndSplineSet
EndChar

StartChar: space
Encoding: 32 32 1
Width: 171
Flags: W
LayerCount: 2
Fore
SplineSet
685.78125 0 m 1024,0,0
EndSplineSet
EndChar

StartChar: exclam
Encoding: 33 33 2
Width: 1063
Flags: MW
HStem: 45 21G
LayerCount: 2
Fore
SplineSet
704 24 m 1
 582.42578125 87.51953125 383.618164062 152.805664062 260 201 c 0
 232.78125 211.612304688 184.967773438 150 182 150 c 0
 162.282226562 150 62.6611328125 282.46875 47 300 c 1
 227 312 l 1
 243.005859375 497.495117188 318.278320312 636 563 636 c 0
 752.998046875 636 729.146484375 285 815 285 c 0
 862.6953125 285 884.352539062 390 917 390 c 0
 964.389648438 390 1016 220.139648438 1016 174 c 0
 1016 99.7236328125 820.943359375 69.12890625 770 42 c 1
 704 24 l 1
EndSplineSet
EndChar

StartChar: quotedbl
Encoding: 34 34 3
Width: 917
Flags: MW
HStem: 48 177<464.362 518.243 464.362 545.435> 102 102<123.703 126.605> 447 177
VStem: 99.1562 171
LayerCount: 2
Fore
SplineSet
150.15625 423 m 0xb0
 189.15625 572 279.344726562 643.920898438 429.15625 669 c 0
 511.637695312 682.807617188 585.052734375 643.961914062 663.15625 624 c 0
 697.59375 615.198242188 870.15625 567.189453125 870.15625 519 c 0
 870.15625 481.291015625 542.764648438 447 501.15625 447 c 0
 452.28125 447 439.416992188 522 408.15625 522 c 1
 387.0859375 526.670898438 369.918945312 513.315429688 354.15625 507 c 0
 329.790039062 493.966796875 305.431640625 482.043945312 297.15625 456 c 1
 280.93359375 434.575195312 269.809570312 406.993164062 270.15625 378 c 0
 270.875 317.932617188 289.178710938 180 372.15625 180 c 0
 410.525390625 180 442.568359375 225 486.15625 225 c 0
 550.330078125 225 615.15625 192.668945312 615.15625 123 c 0
 615.15625 67.544921875 568.712890625 48 522.15625 48 c 0xb0
 392.791015625 48 273.235351562 111 159.15625 111 c 0
 143.53515625 111 133.0546875 102 120.15625 102 c 0
 79.341796875 111.204101562 38.9951171875 153.522460938 48.15625 198 c 0
 54.322265625 227.935546875 49.783203125 222 90.15625 222 c 0
 110.5703125 222 115.25 204 132.15625 204 c 0x70
 144.37109375 204 141.15625 212.456054688 141.15625 225 c 1
 124.767578125 262.704101562 103.329101562 298.268554688 111.15625 345 c 0
 116.453125 376.62890625 99.15625 402.981445312 99.15625 435 c 0
 99.15625 440.438476562 108.00390625 438 114.15625 438 c 2
 132.15625 438 l 2
 146.552734375 438 147.821289062 414.081054688 150.15625 423 c 0xb0
EndSplineSet
EndChar

StartChar: numbersign
Encoding: 35 35 4
Width: 725
Flags: MW
HStem: 216 21G<96.3442 174.994> 375 63<273.221 437.974>
LayerCount: 2
Fore
SplineSet
488.78515625 639 m 1
 596.78515625 633 660.404296875 479.802734375 656.78515625 396 c 0
 655.045898438 355.73828125 655.155273438 316.422851562 668.78515625 279 c 0
 686.634765625 229.991210938 601.345703125 222 569.78515625 222 c 0
 464.142578125 222 394.401367188 375 326.78515625 375 c 0
 219.657226562 375 218.203125 216 131.78515625 216 c 0
 60.9033203125 216 53.78515625 293.282226562 53.78515625 345 c 0
 58.068359375 451.044921875 192.849609375 493.1796875 284.78515625 474 c 0
 329.505859375 464.669921875 377.700195312 438 422.78515625 438 c 0
 453.162109375 438 479.78515625 463.85546875 479.78515625 498 c 0
 480.5546875 512.198242188 477.15625 527.32421875 467.78515625 537 c 0
 456.26171875 548.897460938 452.78515625 588.765625 452.78515625 606 c 0
 452.78515625 622.708984375 457.458007812 618.942382812 461.78515625 630 c 1
 488.78515625 639 l 1
EndSplineSet
EndChar

StartChar: dollar
Encoding: 36 36 5
Width: 892
Flags: MW
HStem: 45 138<497 501.977 485.078 578.679> 99 144<56.6484 277.429>
VStem: 725 120
LayerCount: 2
Fore
SplineSet
170 444 m 1xa0
 215.168945312 581.653320312 340.537109375 640.59765625 485 654 c 0
 704.125 674.330078125 842.46484375 441.350585938 845 249 c 0
 847.704101562 43.7724609375 660.357421875 45 497 45 c 0xa0
 440.395507812 44.2958984375 399.286132812 91.294921875 368 129 c 1
 336.786132812 192.392578125 250.453125 174.223632812 194 168 c 0
 133.897460938 161.374023438 97.25390625 99 68 99 c 0
 45.296875 99 47 106.2734375 47 126 c 0
 58.9609375 205.653320312 162.62890625 243 239 243 c 0x60
 315.857421875 243 394.264648438 232.42578125 458 195 c 0
 471.4453125 187.104492188 476.155273438 183 494 183 c 0
 509.953125 183 521 191.663085938 521 210 c 0
 521 232.340820312 485 223.698242188 485 255 c 0
 481.640625 272.7265625 501.341796875 283.6171875 515 291 c 0
 530.999023438 299.6484375 532.890625 306 554 306 c 0
 609.3203125 305.811523438 641.2578125 252.904296875 674 219 c 0
 684.115234375 208.525390625 689.647460938 189 707 189 c 0
 733.282226562 189.380859375 720.805664062 231.33984375 725 252 c 0
 730.641601562 296.990234375 707.48046875 343.44921875 689 375 c 0
 631.291992188 473.517578125 654.067382812 507 500 507 c 0
 440.047851562 507 439.66796875 468.228515625 398 441 c 1
 317 441 l 1
 170 444 l 1xa0
EndSplineSet
EndChar

StartChar: percent
Encoding: 37 37 6
Width: 859
Flags: MW
HStem: 111 21G<680.53 700.235> 153 282
LayerCount: 2
Fore
SplineSet
205.235351562 591 m 1
 232.235351562 549 l 1
 274.235351562 495 l 1
 275.25390625 479.173828125 339.86328125 463.6484375 355.235351562 459 c 0
 435.484375 434.732421875 522.959960938 433.327148438 610.235351562 435 c 0
 690.325195312 436.2890625 834.080078125 449.084960938 802.235351562 330 c 1
 804.95703125 289.130859375 788.469726562 260.657226562 778.235351562 225 c 0
 765.736328125 181.453125 739.705078125 134.33984375 700.235351562 111 c 1
 660.82421875 111 631.575195312 153 589.235351562 153 c 0
 534.276367188 153 499.235351562 128.98046875 499.235351562 75 c 0
 499.235351562 20.0166015625 562.235351562 20.6337890625 562.235351562 -42 c 0
 562.235351562 -101.75390625 504.294921875 -153 448.235351562 -153 c 0
 354.138671875 -153 208.235351562 -68.58984375 208.235351562 39 c 0
 208.235351562 96.314453125 298.235351562 92.7275390625 298.235351562 141 c 0
 298.235351562 244.479492188 52.2353515625 264.868164062 52.2353515625 420 c 0
 52.2353515625 478.321289062 151.235351562 547.25390625 151.235351562 561 c 1
 205.235351562 591 l 1
EndSplineSet
EndChar

StartChar: ampersand
Encoding: 38 38 7
Width: 930
Flags: MW
HStem: 132 21G<770.805 807.294> 246 150<487.543 686.425 627.022 639.294>
VStem: 759.294 108
LayerCount: 2
Fore
SplineSet
285.293945312 447 m 1
 294.293945312 456 l 1
 327.16015625 477.127929688 324.359375 519 393.293945312 519 c 0
 512.868164062 519 575.75 396 678.293945312 396 c 0
 694.555664062 396 706.17578125 408 720.293945312 408 c 2
 747.293945312 408 l 2
 758.161132812 408 759.293945312 424.520507812 759.293945312 435 c 0
 759.293945312 659.974609375 177.293945312 548.264648438 177.293945312 681 c 0
 177.293945312 717.203125 205.28515625 717 243.293945312 717 c 2
 342.293945312 717 l 2
 474.241210938 717 668.517578125 808.145507812 798.293945312 753 c 0
 866.138671875 724.170898438 874.73828125 628.475585938 867.293945312 558 c 0
 848.208984375 423.137695312 912.75390625 225.940429688 807.293945312 132 c 1
 734.31640625 132 729.61328125 246 639.293945312 246 c 2
 531.293945312 246 l 2
 443.791992188 246 60.2939453125 278.510742188 60.2939453125 399 c 0
 60.2939453125 431.5078125 73.4638671875 525 123.293945312 525 c 0
 181.801757812 525 226.434570312 465.751953125 285.293945312 447 c 1
EndSplineSet
EndChar

StartChar: quotesingle
Encoding: 39 39 8
Width: 950
Flags: MW
HStem: 96 21G<408.047 458.455> 582 63<476.475 496.507 476.475 532.867>
VStem: 119.5 213<194.741 241.987 181.323 292.013> 317.5 9
LayerCount: 2
Fore
SplineSet
470.5 681 m 1xd0
 464.5 654 l 1
 473.676757812 649.141601562 470.44921875 645 482.5 645 c 0
 510.514648438 645 522.3125 675 563.5 675 c 0
 643.586914062 675 902.5 576.026367188 902.5 471 c 0
 902.5 367.764648438 730.694335938 363 665.5 363 c 0
 618.8125 363 592.234375 582 473.5 582 c 0
 438.896484375 582 326.5 575.327148438 326.5 528 c 0xd0
 326.5 487.158203125 470.5 402.475585938 470.5 363 c 0
 470.5 282.059570312 332.5 276.974609375 332.5 207 c 0
 332.5 155.645507812 473.5 164.220703125 473.5 123 c 0
 473.5 103.171875 467.41015625 96 449.5 96 c 0
 366.59375 96 119.5 131.481445312 119.5 258 c 0xe0
 119.5 326.026367188 317.5 304.916015625 317.5 399 c 0
 317.5 501.41796875 47.5 510.100585938 47.5 636 c 0
 47.5 706.434570312 286.25 681 323.5 681 c 2
 470.5 681 l 1xd0
EndSplineSet
EndChar

StartChar: parenleft
Encoding: 40 40 9
Width: 999
Flags: MW
HStem: 306 15 306 201<531.224 541.604> 375 84<232.008 246.409 192.224 253.732>
VStem: 54.2236 117
LayerCount: 2
Fore
SplineSet
123.223632812 432 m 1x30
 192.223632812 459 l 1x30
 300.594726562 459 409.264648438 507 522.223632812 507 c 0x50
 638.075195312 507 688.479492188 321 801.223632812 321 c 0x90
 852.435546875 321 945.223632812 354.94140625 945.223632812 315 c 0
 945.223632812 232.16796875 906.713867188 204 834.223632812 204 c 1
 732.989257812 181.564453125 693.879882812 310.825195312 597.223632812 300 c 0
 577.538085938 297.794921875 551.983398438 306 531.223632812 306 c 0x50
 472.21875 307.51953125 415.065429688 286.32421875 357.223632812 291 c 0
 322.484375 293.80859375 267.223632812 295.373046875 267.223632812 342 c 0
 267.223632812 352.26171875 270.223632812 363.463867188 270.223632812 372 c 0
 270.223632812 377.9453125 255.240234375 375 252.223632812 375 c 0
 211.79296875 375 195.223632812 345.575195312 195.223632812 312 c 0
 195.223632812 279.162109375 177.782226562 273 144.223632812 273 c 0
 64.2734375 277.423828125 50.9365234375 386.314453125 54.2236328125 453 c 0
 56.2607421875 494.322265625 67.84375 555 120.223632812 555 c 1
 137.520507812 559.303710938 142.802734375 538.4140625 153.223632812 528 c 0
 162.184570312 519.045898438 171.223632812 490.80859375 171.223632812 480 c 1
 123.223632812 432 l 1x30
EndSplineSet
EndChar

StartChar: parenright
Encoding: 41 41 10
Width: 931
Flags: MW
HStem: 123 21G<478.121 499.495> 438 243<463.737 617.115> 754 20G<82.5195 179.687>
LayerCount: 2
Fore
SplineSet
290.293945312 165 m 0
 272.743164062 160.293945312 251.021484375 157.465820312 230.293945312 159 c 0
 145.26171875 165.291992188 71.2939453125 213.616210938 71.2939453125 306 c 0
 70.095703125 340.310546875 130.557617188 316.12109375 152.293945312 324 c 0
 170.200195312 330.490234375 182.293945312 307.568359375 182.293945312 330 c 0
 177.31640625 383.147460938 145.764648438 435.456054688 101.293945312 462 c 0
 38.291015625 499.60546875 59.4091796875 595.869140625 53.2939453125 660 c 0
 49.576171875 698.983398438 57.7451171875 774 107.293945312 774 c 0
 252.079101562 774 391.1796875 681 536.293945312 681 c 0
 577.556640625 681 616.10546875 696 656.293945312 696 c 1
 689.432617188 702.97265625 708.336914062 667.891601562 734.293945312 651 c 1
 785.4609375 598.606445312 883.442382812 563.311523438 878.293945312 474 c 0
 873.913085938 398.004882812 853.41796875 411 761.293945312 411 c 0
 700.249023438 411 646.935546875 438 587.293945312 438 c 0
 563.592773438 438 542.293945312 429.295898438 542.293945312 405 c 0
 540.956054688 389.665039062 556.20703125 383.615234375 566.293945312 375 c 1
 607.171875 363.471679688 610.405273438 302.129882812 596.293945312 267 c 1
 571.46484375 235.030273438 524.684570312 220.783203125 533.293945312 177 c 0
 539.87109375 143.548828125 513.696289062 123 485.293945312 123 c 0
 470.948242188 123 461.784179688 120.971679688 452.293945312 129 c 0
 416.081054688 159.633789062 381.543945312 189.466796875 290.293945312 165 c 0
EndSplineSet
EndChar

StartChar: asterisk
Encoding: 42 42 11
Width: 988
Flags: MW
HStem: 66 21G<546.712 623.31> 591 171
LayerCount: 2
Fore
SplineSet
102.5 309 m 2
 107.6875 309 134.400390625 273.801757812 141.5 273 c 0
 228.388671875 263.181640625 350.202148438 307.924804688 333.5 414 c 0
 304.536132812 597.947265625 669.8203125 762 822.5 762 c 0
 883.533203125 762 939.5 729.965820312 939.5 666 c 0
 939.5 624.192382812 898.276367188 594.477539062 858.5 591 c 0
 819.01171875 587.547851562 768.5 558.80078125 768.5 519 c 0
 768.5 490.869140625 783.5 468.0234375 783.5 441 c 0
 793.098632812 347.50390625 713.811523438 282.46484375 696.5 198 c 0
 677.34765625 104.55859375 673.120117188 66 573.5 66 c 0
 519.923828125 66 498.178710938 123 444.5 123 c 0
 393.069335938 125.034179688 355.438476562 93.013671875 318.5 63 c 1
 300.883789062 54.916015625 288.275390625 43.658203125 267.5 45 c 1
 222.82421875 35.8740234375 192.348632812 59.587890625 156.5 72 c 0
 128.004882812 81.865234375 117.094726562 103.314453125 123.5 132 c 0
 136.989257812 192.409179688 48.5 200.7734375 48.5 258 c 0
 48.5 280.60546875 62.4853515625 288.301757812 69.5 303 c 1
 102.5 309 l 2
EndSplineSet
EndChar

StartChar: plus
Encoding: 43 43 12
Width: 908
Flags: MW
HStem: 156 21G<667.744 706.388> 171 93<178 226 226 246.066 178 256.207> 459 123<528.27 730.84>
VStem: 52 144<291 361.285 318 361.285>
LayerCount: 2
Fore
SplineSet
112 213 m 1x70
 52 291 l 1
 52 318 l 1
 72.1806640625 329.02734375 55 389 73 429 c 0
 105 498 103.463867188 582.0859375 178 594 c 0
 197.115234375 597.055664062 203.948242188 591.795898438 214 576 c 0
 234.067382812 544.465820312 274.057617188 462 319 462 c 0
 341.721679688 458.59765625 358.969726562 472.509765625 379 477 c 1
 406.268554688 494.193359375 436.760742188 516.399414062 472 528 c 0
 545.719726562 552.26953125 607.106445312 582 694 582 c 0
 767.680664062 582 856 543.149414062 856 462 c 1
 845.818359375 420.409179688 773.424804688 449.056640625 742 444 c 0
 675.473632812 433.294921875 603.013671875 459 538 459 c 0
 518.5390625 459 514 447.966796875 514 429 c 0
 512.716796875 402.5859375 546.958007812 393.353515625 559 372 c 0
 593.275390625 306.579101562 695.165039062 321.754882812 724 252 c 0
 733.095703125 229.997070312 742 222.674804688 742 201 c 0
 742 173.9765625 718.776367188 156 694 156 c 0xb0
 641.487304688 156 604.612304688 273 535 273 c 0
 420.872070312 273 319.4140625 171 193 171 c 0
 156.834960938 171 151 207.481445312 151 237 c 0
 151 252.357421875 162.15234375 264 178 264 c 2
 226 264 l 2
 266.1328125 264 298 285.793945312 298 330 c 1
 308.079101562 372.499023438 265.057617188 376.998046875 238 387 c 0
 214.815429688 395.5703125 187 382.34375 187 414 c 0
 187 431.786132812 205 437.88671875 205 453 c 0
 205 471.794921875 184.931640625 486 169 486 c 0
 153.5234375 486 106 420.178710938 106 402 c 1
 114.7578125 391.041015625 134.76953125 390.404296875 151 384 c 0
 170.844726562 376.169921875 196 374.569335938 196 348 c 0
 196 322.989257812 165.516601562 315.064453125 154 303 c 2
 109 255 l 1
 112 213 l 1x70
EndSplineSet
EndChar

StartChar: comma
Encoding: 44 44 13
Width: 757
Flags: MW
HStem: 54 21G<184.893 233.137> 708 75
VStem: 105.5 168<143.961 152.443 110.123 221.151> 159.5 84<561.194 576 561.194 590.176> 186.5 27 648.5 63<612.063 638.141>
LayerCount: 2
Fore
SplineSet
615.5 591 m 1xd4
 636.5 594 l 1
 642.084960938 604.705078125 648.5 606.125976562 648.5 618 c 0
 648.5 658.282226562 540.090820312 694.520507812 501.5 687 c 0
 448.514648438 676.673828125 408.267578125 704.91015625 363.5 708 c 0
 271.790039062 712.19140625 191.266601562 690.678710938 114.5 666 c 0
 105.887695312 666 45.5 659.280273438 45.5 672 c 0
 45.5 765.200195312 177.442382812 768 252.5 768 c 2
 282.5 768 l 2
 316.56640625 768 369.084960938 783 408.5 783 c 0
 491.393554688 783 711.5 775.125 711.5 648 c 0
 711.5 553.920898438 687.1875 533.741210938 603.5 537 c 0
 549.65234375 539.096679688 500.90234375 562.3359375 447.5 555 c 0
 441.440429688 555 408.5 555.158203125 408.5 552 c 0
 408.5 518.463867188 528.5 499.470703125 528.5 450 c 0
 528.5 404.001953125 443.473632812 294 393.5 294 c 0
 377.334960938 294 314.897460938 424.651367188 306.5 447 c 0
 289.595703125 491.989257812 247.650390625 527.015625 243.5 576 c 1xd4
 243.5 546.387695312 264.5 524.299804688 264.5 489 c 0
 264.5 402.685546875 213.5 359.836914062 213.5 276 c 0xcc
 213.5 213.608398438 273.5 178.88671875 273.5 126 c 0
 273.5 94.24609375 249.774414062 54 216.5 54 c 0
 153.286132812 54 105.5 113.922851562 105.5 174 c 0xe4
 105.5 268.301757812 186.5 337.9765625 186.5 417 c 0xcc
 186.5 464.325195312 159.5 505.536132812 159.5 555 c 0
 159.5 625.3515625 163.095703125 663 249.5 663 c 0
 364.5 663 507.763671875 635.423828125 615.5 591 c 1xd4
EndSplineSet
EndChar

StartChar: hyphen
Encoding: 45 45 14
Width: 996
Flags: W
LayerCount: 2
Fore
SplineSet
835.495117188 471 m 2
 916.495117188 441 l 1
 943.274414062 424.052734375 945.736328125 410.030273438 946.495117188 375 c 0
 947.52734375 327.329101562 868.258789062 320.177734375 892.495117188 258 c 1
 892.495117188 230.567382812 895.434570312 203.766601562 901.495117188 177 c 0
 912.561523438 128.123046875 878.373046875 81.87109375 826.495117188 99 c 1
 765.619140625 99 729.868164062 165 652.495117188 165 c 0
 520.56640625 165 413.971679688 98.6396484375 280.495117188 111 c 0
 246.630859375 114.135742188 181.556640625 95.1484375 184.495117188 147 c 0
 184.495117188 242.237304688 370.495117188 175.458984375 370.495117188 282 c 0
 370.495117188 289.497070312 362.940429688 318 352.495117188 318 c 2
 316.495117188 318 l 2
 274.515625 318 49.4951171875 370.220703125 49.4951171875 420 c 0
 49.4951171875 474.979492188 98.6669921875 515.44140625 154.495117188 516 c 0
 235.338867188 516.80859375 247.517578125 660.623046875 355.495117188 621 c 1
 431.669921875 621 464.663085938 513 556.495117188 513 c 0
 605.004882812 513 593.8359375 627 688.495117188 627 c 0
 755.216796875 627 767.616210938 496.140625 835.495117188 471 c 2
EndSplineSet
EndChar

StartChar: period
Encoding: 46 46 15
Width: 962
Flags: MW
HStem: 447 60 564 75
VStem: 409 507<285.688 410.404>
LayerCount: 2
Fore
SplineSet
56.986328125 398.908203125 m 1
 119.022460938 426.365234375 307.884765625 639 481 639 c 0
 578.211914062 639 916 450.884765625 916 330 c 0
 916 241.375 834.5859375 276 760 276 c 0
 697.135742188 276 642.373046875 300 583 300 c 1
 520.673828125 236.0234375 480.609375 143.350585938 361 165 c 0
 252.734375 184.596679688 106 123.106445312 106 315 c 0
 106 337.377929688 149.219726562 351 169 351 c 0
 210.135742188 347.013671875 249.430664062 359.708007812 292 360 c 0
 313.58984375 360.1484375 337.303710938 363 361 363 c 0
 379.95703125 363 409 385.444335938 409 405 c 0
 409 415.80859375 379.606445312 447 367 447 c 2
 349 447 l 2
 329.66796875 447 298 471.40625 298 486 c 0
 297.45703125 524.859375 353.322265625 499.8125 379 507 c 0
 444.262695312 525.268554688 468 453 532 450 c 0
 572 448 645.659179688 489.462890625 625 495 c 0
 560.88671875 512.182617188 502.676757812 565.16015625 436 564 c 0
 283.364257812 561.34375 256.935546875 491.828125 148 423 c 1
 56.986328125 398.908203125 l 1
56.986328125 398.908203125 m 2
 52.7041015625 397.012695312 49.0263671875 396 46 396 c 2
 56.986328125 398.908203125 l 2
EndSplineSet
EndChar

StartChar: slash
Encoding: 47 47 16
Width: 1286
Flags: MW
HStem: 180 21G 303 87
VStem: 964.758 273<247.463 435.619>
LayerCount: 2
Fore
SplineSet
223.7578125 483 m 1
 298.7578125 507 l 1
 409.701171875 577.88671875 508.348632812 654.743164062 655.7578125 621 c 1
 921.135742188 683.4296875 1089.9921875 537.440429688 1213.7578125 333 c 0
 1228.56347656 308.543945312 1237.7578125 309.639648438 1237.7578125 279 c 0
 1237.7578125 215.926757812 1130.18261719 159 1075.7578125 159 c 0
 972.739257812 159 913.166015625 303 790.7578125 303 c 0
 647.053710938 303 525.9921875 207 382.7578125 207 c 0
 336.9453125 207 343.7578125 272.89453125 343.7578125 306 c 0
 343.7578125 395.372070312 431.528320312 414 505.7578125 414 c 0
 624.419921875 414 740.829101562 380.10546875 862.7578125 390 c 0
 878.74609375 391.297851562 964.7578125 379.599609375 964.7578125 399 c 0
 964.7578125 472.237304688 681.23828125 474 628.7578125 474 c 0
 595.020507812 474 298.7578125 488.650390625 298.7578125 429 c 0
 295.267578125 399.231445312 317.161132812 376.8515625 310.7578125 345 c 0
 307.174804688 327.17578125 317.052734375 291 292.7578125 291 c 0
 205.252929688 280.547851562 119.499023438 364.828125 124.7578125 450 c 0
 128.875 516.680664062 25.7548828125 528.302734375 52.7578125 609 c 0
 59.826171875 630.124023438 41.0634765625 645 73.7578125 645 c 0
 149.096679688 645 161.528320312 604.326171875 202.7578125 585 c 1
 211.7578125 510 l 1
 223.7578125 483 l 1
EndSplineSet
EndChar

StartChar: zero
Encoding: 48 48 17
Width: 725
Flags: MW
HStem: 108 21G<292.735 313.729> 721 20G<320.759 355.046>
LayerCount: 2
Fore
SplineSet
457.229492188 244.538085938 m 1
 430.653320312 167.391601562 387.748046875 116.427734375 339.013671875 114.083984375 c 0
 329.165039062 110.095703125 318.958984375 108 308.5 108 c 0
 276.969726562 108 247.748046875 127.048828125 223.631835938 159.555664062 c 1
 128.625976562 167.783203125 53.5 266.439453125 53.5 388 c 0
 53.5 487.631835938 103.965820312 572.4921875 174.481445312 604.440429688 c 1
 185.295898438 653.774414062 216.998046875 689.852539062 255.396484375 692.8046875 c 1
 278.5546875 723.3359375 306.018554688 741 335.5 741 c 0
 374.591796875 741 410.134765625 709.943359375 436.799804688 659.010742188 c 1
 444.25390625 659.665039062 451.828125 660 459.5 660 c 0
 576.5 660 671.5 582 671.5 486 c 0
 671.5 439.4140625 649.12890625 397.06640625 612.728515625 365.814453125 c 0
 607.709960938 357.397460938 601.927734375 349.286132812 595.446289062 341.533203125 c 1
 587.095703125 292.418945312 530.036132812 252.700195312 457.229492188 244.538085938 c 1
EndSplineSet
EndChar

StartChar: one
Encoding: 49 49 18
Width: 1367
Flags: MW
HStem: 168 9 678 57<129.687 228.416>
VStem: 44.5 477<454.731 477.474 454.731 558.666> 251.5 24<670.162 677.549>
LayerCount: 2
Fore
SplineSet
221.5 642 m 1xe0
 208.833007812 652.666992188 214.833007812 660.666992188 239.5 666 c 0
 239.591796875 666.01953125 251.5 668.323242188 251.5 672 c 0
 251.5 683.098632812 232.33203125 678 224.5 678 c 0
 203.225585938 678 110.5 664.458007812 110.5 693 c 0
 110.5 711.821289062 118.873046875 735 140.5 735 c 0
 226.223632812 735 312.233398438 718.05078125 404.5 723 c 0
 652.57421875 736.306640625 371.678710938 687.797851562 275.5 681 c 1xd0
 275.5 644.038085938 755.5 628.572265625 755.5 525 c 0
 755.5 459.436523438 521.5 492.948242188 521.5 462 c 0
 521.5 447.461914062 560.5 448.764648438 560.5 435 c 0
 560.5 429.798828125 554.5 432.939453125 554.5 426 c 0
 554.5 373.247070312 1220.27050781 177 1292.5 177 c 2
 1322.5 177 l 2
 1322.42382812 177 1322.71289062 168 956.5 168 c 0
 887.499023438 168 407.5 199.857421875 407.5 237 c 0
 407.5 381.284179688 44.5 348.46484375 44.5 519 c 0
 44.5 598.33203125 227.5 620.423828125 227.5 636 c 0
 227.5 643.006835938 220.686523438 635.46484375 221.5 642 c 1xe0
EndSplineSet
EndChar

StartChar: two
Encoding: 50 50 19
Width: 918
Flags: MW
HStem: 150 21G<393.464 423.12> 354 120 564 78 712 20G<66.0371 89.2866>
VStem: 358.879 264<161.148 269.172>
LayerCount: 2
Fore
SplineSet
154.87890625 690 m 1
 217.364257812 690 255.749023438 642 319.87890625 642 c 0
 406.202148438 642 769.87890625 548.119140625 769.87890625 450 c 2
 769.87890625 423 l 2
 769.87890625 416.467773438 871.87890625 350.567382812 871.87890625 285 c 0
 871.87890625 250.71484375 796.33984375 286.294921875 772.87890625 273 c 0
 717.069335938 241.374023438 622.87890625 315.254882812 622.87890625 198 c 2
 622.87890625 177 l 2
 622.87890625 145.295898438 433.361328125 150 412.87890625 150 c 0
 374.048828125 150 358.87890625 217.376953125 358.87890625 252 c 0
 358.87890625 286.344726562 505.87890625 272.955078125 505.87890625 309 c 0
 505.87890625 324.326171875 325.618164062 354 292.87890625 354 c 0
 250.3515625 354 262.869140625 294 232.87890625 294 c 0
 160.828125 294 109.87890625 357.997070312 109.87890625 426 c 0
 109.87890625 509.608398438 203.321289062 462.083007812 247.87890625 474 c 0
 268.778320312 479.58984375 316.87890625 462.02734375 316.87890625 501 c 1
 298.186523438 537.681640625 236.088867188 524.11328125 202.87890625 546 c 0
 188.439453125 555.516601562 171.68359375 564 151.87890625 564 c 1
 103.3046875 552.693359375 38.3759765625 586.951171875 46.87890625 642 c 0
 50.07421875 662.690429688 49.1953125 732 82.87890625 732 c 0
 95.6943359375 732 114.213867188 700.866210938 121.87890625 693 c 1
 154.87890625 690 l 1
EndSplineSet
EndChar

StartChar: three
Encoding: 51 51 20
Width: 727
Flags: MW
HStem: 99 21G<459.219 486.571> 640 20G<589.234 636.571>
VStem: 465.5 69<146.74 160.533>
LayerCount: 2
Fore
SplineSet
438.5 561 m 1
 480.5 564 l 1
 462.998046875 591.93359375 505.671875 590.384765625 522.5 585 c 0
 591.494140625 562.922851562 553.96875 660 624.5 660 c 0
 648.642578125 660 681.5 666.58203125 681.5 633 c 0
 681.5 590.356445312 618.5 591.577148438 618.5 564 c 0
 618.5 552.24609375 630.5 544.908203125 630.5 531 c 0
 630.5 400.973632812 441.5 377.666015625 441.5 276 c 0
 441.5 238.299804688 534.5 227.583984375 534.5 171 c 0
 534.5 122.479492188 510.641601562 99 462.5 99 c 0
 455.9375 99 447.5 97.375 447.5 105 c 0
 447.5 116.331054688 465.5 132.33984375 465.5 150 c 0
 465.5 171.06640625 435.810546875 177 417.5 177 c 2
 330.5 177 l 2
 280.552734375 177 120.5 173.70703125 120.5 258 c 0
 120.5 330.671875 261.5 297.946289062 261.5 399 c 0
 261.5 403.97265625 279.5 416.532226562 279.5 429 c 0
 279.5 560.047851562 45.5 511.375976562 45.5 591 c 0
 45.5 609.25 60.3115234375 603 78.5 603 c 0
 192.79296875 603 306.157226562 585 420.5 585 c 1
 438.5 561 l 1
EndSplineSet
EndChar

StartChar: four
Encoding: 52 52 21
Width: 786
Flags: MW
HStem: 108 21G<295.468 373.309> 204 402<465 559.995> 675 21G<139.263 150.104>
VStem: 48 585<112.287 329.567>
LayerCount: 2
Fore
SplineSet
225 657 m 1
 249 660 l 1
 293.491210938 678.598632812 322.125 711 372 711 c 0
 410.84765625 711 417.42578125 664.325195312 435 645 c 0
 444.91015625 634.102539062 443.877929688 608.368164062 465 606 c 0
 471.638671875 606 474.278320312 609 483 609 c 0
 513.725585938 609 540.325195312 591 573 591 c 0
 593.186523438 591 615.818359375 615 645 615 c 0
 691.758789062 615 735 618.494140625 735 564 c 0
 735 460.286132812 633 371.133789062 633 288 c 0
 633 236.575195312 738 239.581054688 738 198 c 0
 738 180.776367188 723.583984375 156 708 156 c 0
 640.224609375 156 588.990234375 204 531 204 c 0
 450.162109375 204 419.618164062 108 327 108 c 0
 263.936523438 108 48 65.5732421875 48 159 c 0
 48 203.666015625 109.012695312 233.453125 105 279 c 0
 93.78515625 406.279296875 191.615234375 438.456054688 276 504 c 1
 276 583.28125 69 582.662109375 69 654 c 0
 69 670.469726562 134.526367188 675 144 675 c 0
 156.208007812 675 190 689 225 657 c 1
EndSplineSet
EndChar

StartChar: five
Encoding: 53 53 22
Width: 914
Flags: MW
HStem: 39 21G<844.021 861.418> 48 315<373.257 433.97 371.386 538.227> 660 21G<205.961 245.466>
VStem: 289 87<476.766 492 476.766 503.105> 499 57 499 237<568.816 651.856 568.816 654 568.816 670.326>
LayerCount: 2
Fore
SplineSet
382 621 m 1x74
 388 600 l 1
 388 585 l 2
 388 574.686523438 371.866210938 535.555664062 350.879882812 490.611328125 c 1
 360.188476562 495.133789062 368.82421875 496.026367188 376 492 c 1
 376 461.53125 355 434.134765625 355 402 c 0
 355 379.233398438 357.771484375 363 385 363 c 0
 482.940429688 363 499 455.440429688 499 534 c 2x78
 499 654 l 2
 499 686.65234375 493.8359375 732 529 732 c 0
 584.529296875 732 736 685.712890625 736 618 c 0x74
 736 519.631835938 556 503.875976562 556 417 c 0
 556 370.015625 865 343.76171875 865 168 c 0
 865 156.45703125 863.836914062 39 859 39 c 0xb8
 829.041992188 39 807.833007812 180 736 180 c 0
 653.564453125 180 598.453125 48 478 48 c 0
 268.513671875 48 49 106.604492188 49 354 c 0
 49 439.81640625 289 364.12890625 289 468 c 0
 289 538.2109375 178 561.420898438 178 636 c 0
 178 666.135742188 191.921875 660 220 660 c 0
 270.932617188 660 333.779296875 641.828125 382 621 c 1x74
EndSplineSet
EndChar

StartChar: six
Encoding: 54 54 23
Width: 501
Flags: MW
HStem: 153 21G<338.809 354.839> 567 63<105.376 163.55> 582 78<74.8926 116.809>
VStem: 215.809 168<424.99 461.463 422.406 466.678>
LayerCount: 2
Fore
SplineSet
131.80859375 627 m 1xb0
 138.36328125 623.333007812 126.662109375 630 140.80859375 630 c 0
 186.291992188 630 395.80859375 619.116210938 395.80859375 561 c 0
 395.80859375 519.991210938 383.80859375 481.92578125 383.80859375 441 c 0
 383.80859375 403.811523438 452.80859375 399.356445312 452.80859375 387 c 0
 452.80859375 380.33984375 407.80859375 384.70703125 407.80859375 378 c 2
 407.80859375 357 l 2
 407.80859375 334.850585938 362.80859375 352.649414062 362.80859375 333 c 0
 362.80859375 284.489257812 452.80859375 244.060546875 452.80859375 207 c 0
 452.80859375 164.274414062 370.870117188 153 338.80859375 153 c 1
 281.71484375 164.784179688 239.686523438 233.655273438 251.80859375 291 c 0
 265.786132812 357.129882812 215.80859375 396.979492188 215.80859375 453 c 0
 215.80859375 480.35546875 287.80859375 493.762695312 287.80859375 510 c 1
 247.337890625 524.311523438 199.8671875 550.279296875 161.80859375 558 c 0
 144.0859375 561.595703125 130.731445312 567 113.80859375 567 c 0xd0
 96.943359375 567 93.1806640625 582 80.80859375 582 c 0xb0
 68.9765625 582 74.4130859375 567 62.80859375 567 c 0xd0
 43.892578125 562.818359375 52.193359375 590.119140625 50.80859375 600 c 0
 44.3935546875 645.758789062 46.4541015625 660 95.80859375 660 c 2
 116.80859375 660 l 1
 131.80859375 627 l 1xb0
EndSplineSet
EndChar

StartChar: seven
Encoding: 55 55 24
Width: 1011
Flags: MW
HStem: 24 182<404.339 455.897> 51 21G<761.611 788.649> 690 4.31152 694.312 70.6885
VStem: 55.5 177<349.326 388.314 349.326 408> 631.5 45<212.862 332.464> 727.5 42<640.061 731.523> 748.5 186<409.882 589.779>
LayerCount: 2
Fore
SplineSet
634.5 624 m 1x8d
 643.5 615 l 1
 658.536132812 612.12109375 672.9921875 606 691.5 606 c 0
 721.903320312 606 727.5 626.122070312 727.5 654 c 0
 727.5 694.903320312 703.909179688 698.4296875 664.5 693 c 0
 645.157226562 690.334960938 561.763671875 693.899414062 513.525390625 694.311523438 c 1
 568.779296875 710.26171875 616.493164062 765 676.5 765 c 1
 676.5 765 775.5 776.646484375 775.5 756 c 0
 775.5 748.190429688 769.5 737.046875 769.5 726 c 0x9e
 769.5 650.965820312 934.5 639.55859375 934.5 540 c 0
 934.5 515.033203125 919.5 494.520507812 919.5 471 c 0
 919.5 454.360351562 958.5 445.634765625 958.5 414 c 0
 958.5 398.713867188 940.5 393.104492188 940.5 387 c 0
 940.5 373.458007812 951.62890625 297 937.5 297 c 0
 924.483398438 297 923.41015625 324 919.5 324 c 0
 883.66015625 324 676.5 247.143554688 676.5 243 c 0
 676.5 182.724609375 841.5 158.83984375 841.5 84 c 0
 841.5 56.873046875 798.797851562 51 778.5 51 c 0x5d
 744.72265625 51 740.602539062 90 718.5 90 c 0
 692.571289062 90 667.04296875 87 643.5 87 c 0
 605.701171875 87 490.293945312 24 421.5 24 c 0
 402.815429688 24 214.5 90.517578125 214.5 120 c 0
 214.5 148.862304688 265.5 135.47265625 265.5 165 c 0
 265.5 271.176757812 55.5 258.075195312 55.5 408 c 1
 55.5 408 49.2392578125 474 61.5 474 c 0
 117.080078125 474 169.377929688 441 223.5 441 c 0
 232.669921875 441 256.5 448.61328125 256.5 462 c 1
 256.5 430.515625 232.5 404.627929688 232.5 372 c 0
 232.5 326.651367188 250.5 282.727539062 250.5 240 c 0
 250.5 215.775390625 416.178710938 206 392.5 206 c 1
 417.8515625 206 631.5 213.329101562 631.5 318 c 0
 631.5 346.927734375 508.5 345.073242188 508.5 366 c 1
 508.5 366 526.5 371.350585938 526.5 384 c 0
 526.5 396.4140625 511.5 398.5859375 511.5 411 c 0
 511.5 433.125 748.5 396.763671875 748.5 423 c 0
 748.5 529.112304688 52.5 461.25 52.5 642 c 0
 52.5 661.78125 364.5 651 364.5 651 c 2
 526.5 658 559.045898438 639.03125 634.5 624 c 1x8d
513.525390625 694.311523438 m 1
 504.102539062 691.591796875 494.459960938 690 484.5 690 c 0x2c
 469.337890625 693.727539062 485.498046875 694.551757812 513.525390625 694.311523438 c 1
EndSplineSet
EndChar

StartChar: eight
Encoding: 56 56 25
Width: 770
Flags: MW
HStem: 150 21G<298.862 342.464> 694 20G<659.24 689.473>
VStem: 584.5 135<503.836 564>
LayerCount: 2
Fore
SplineSet
170.5 639 m 1
 212.541015625 649.581054688 233.078125 672.198242188 251.5 696 c 1
 251.5 702 l 2
 251.5 709.918945312 236.5 712.98828125 236.5 723 c 0
 236.5 759.357421875 249.559570312 759.1953125 281.5 762 c 0
 312.159179688 764.692382812 341.463867188 750.671875 368.5 735 c 1
 368.5 691.569335938 302.5 662.038085938 302.5 630 c 0
 302.5 551.046875 584.5 550.368164062 584.5 474 c 1
 584.5 533.672851562 530.5 588.233398438 530.5 648 c 0
 530.5 655.861328125 646.979492188 714 671.5 714 c 0
 707.4453125 714 719.5 564 719.5 564 c 1
 719.5 492.302734375 670.486328125 162 518.5 162 c 0
 497.46484375 162 484.323242188 180 470.5 180 c 0
 418.458007812 180 364.427734375 150 320.5 150 c 0
 277.223632812 150 89.5 262.563476562 89.5 306 c 0
 89.5 316.689453125 107.5 306.35546875 107.5 321 c 0
 107.5 334.341796875 83.5 334.000976562 83.5 351 c 0
 83.5 424.775390625 317.5 409.834960938 317.5 456 c 0
 317.5 533.23046875 50.5 534.446289062 50.5 612 c 0
 50.5 674.655273438 118.108398438 612.8515625 170.5 639 c 1
EndSplineSet
EndChar

StartChar: nine
Encoding: 57 57 26
Width: 947
Flags: MW
HStem: 174 21G 294 336<510.204 841.389>
LayerCount: 2
Fore
SplineSet
887.5 636 m 1
 875.5 588 l 1
 875.5 564 l 2
 875.5 537.443359375 896.5 535.524414062 896.5 507 c 0
 896.5 459.998046875 806.5 456.091796875 806.5 414 c 0
 806.5 359.474609375 872.5 338.76953125 872.5 285 c 0
 872.5 209.302734375 721.12109375 195 677.5 195 c 0
 623.010742188 195 587.303710938 294 557.5 294 c 0
 462.907226562 294 363.133789062 174 245.5 174 c 0
 150.154296875 174 50.5 255.889648438 50.5 363 c 0
 50.5 419.314453125 333.0859375 709.073242188 395.5 696 c 0
 540.239257812 665.682617188 689.895507812 630 839.5 630 c 0
 843.27734375 630 882.388671875 636 887.5 636 c 1
EndSplineSet
EndChar

StartChar: colon
Encoding: 58 58 27
Width: 1026
Flags: MW
HStem: 111 21G 189 192 612 132 682 21G
VStem: 142.463 675<523.178 702.226>
LayerCount: 2
Fore
SplineSet
259.462890625 693 m 1xd8
 277.462890625 699 l 2
 283.766601562 699.9453125 290.1875 702 298.462890625 702 c 0
 357.25 702 377.370117188 636 457.462890625 636 c 0
 509.452148438 636 543.283203125 744 625.462890625 744 c 0
 673.833007812 744 817.462890625 735.451171875 817.462890625 669 c 0
 817.462890625 628.97265625 736.611328125 624.529296875 709.462890625 612 c 0xe8
 678.497070312 597.708984375 610.715820312 601.724609375 622.462890625 549 c 1
 622.462890625 435.071289062 715.830078125 418.866210938 796.462890625 381 c 0
 856.916015625 352.610351562 976.938476562 357.189453125 973.462890625 264 c 0
 973.462890625 203.713867188 922.822265625 218.387695312 889.462890625 189 c 1
 778.462890625 189 l 1
 733.462890625 117 l 1
 695.153320312 106.112304688 679.504882812 90 637.462890625 90 c 0
 505.955078125 90 439.83203125 162 319.462890625 162 c 0
 291.088867188 162 266.237304688 135 232.462890625 135 c 0
 114.841796875 135 52.462890625 274.798828125 52.462890625 384 c 0
 52.462890625 461.055664062 142.462890625 497.356445312 142.462890625 549 c 0
 142.462890625 591.73828125 52.462890625 575.084960938 52.462890625 636 c 0
 52.462890625 670.252929688 148.34765625 696 172.462890625 696 c 0
 172.606445312 696 259.462890625 693 259.462890625 693 c 1xd8
EndSplineSet
EndChar

StartChar: semicolon
Encoding: 59 59 28
Width: 910
Flags: MW
HStem: 57 153<257.982 297.283 257.982 346.913> 204 72<545.682 591.278 545.682 612.379> 426 309<554 594.255>
VStem: 203 39<346.379 363.298 297.316 397.125> 524 333<505.387 627.4>
LayerCount: 2
Fore
SplineSet
479 591 m 1xb8
 485 582 l 1
 497 582 l 2
 514.545898438 582 524 588.223632812 524 606 c 0
 524 648.80078125 467 645.74609375 467 672 c 0
 467 698.09765625 473.421875 691.043945312 491 708 c 0
 507.959960938 724.360351562 528.538085938 734.87890625 554 735 c 0
 654.215820312 735 857 645.559570312 857 525 c 0
 857 485.7734375 847.920898438 357 797 357 c 0
 707.129882812 357 640.509765625 426 548 426 c 0
 489.827148438 426 242 417.596679688 242 309 c 0
 242 285.631835938 240.963867188 210 275 210 c 0xb8
 319.56640625 210 369.046875 266.771484375 431 264 c 0
 478.916015625 261.856445312 522.36328125 276 569 276 c 0
 613.555664062 276 767 263.361328125 767 204 c 0
 767 191.341796875 764.05078125 141 752 141 c 0
 693.879882812 141 643.7578125 204 581 204 c 0x78
 506.65625 204 412.825195312 57 281 57 c 0
 193.266601562 57 53 152.060546875 53 249 c 0
 53 316.241210938 203 320.7578125 203 372 c 0
 203 422.25 116 455.514648438 116 519 c 0
 116 546.999023438 128.53125 568.427734375 131 594 c 0
 134.297851562 628.158203125 154.990234375 673.649414062 197 675 c 0
 286.100585938 677.864257812 396.8515625 614.72265625 479 591 c 1xb8
EndSplineSet
EndChar

StartChar: less
Encoding: 60 60 29
Width: 866
Flags: MW
HStem: 342 174<532.771 660.369 532.771 742> 399 195<203.571 301.573>
LayerCount: 2
Fore
SplineSet
84 561 m 1x40
 115 570 l 1
 149.826171875 570 184.141601562 594 223 594 c 0x40
 318.221679688 594 470.54296875 516 595 516 c 0
 626.603515625 515.220703125 659.279296875 521.728515625 688 504 c 0
 755.430664062 462.375 814 467.529296875 814 369 c 0
 814 329.41796875 760.53515625 358.743164062 742 342 c 0
 731.651367188 332.651367188 668.73828125 342 652 342 c 0x80
 590.212890625 342 567.361328125 300 502 300 c 0
 457.135742188 300 429.194335938 328.895507812 394 345 c 0
 354.4765625 363.0859375 323.146484375 399 280 399 c 0
 248.97265625 397.565429688 227.786132812 410.38671875 199 417 c 0
 126.33203125 433.6953125 52 437.172851562 52 531 c 0
 52 541.90625 53.0830078125 533.985351562 58 543 c 1
 84 561 l 1x40
EndSplineSet
EndChar

StartChar: equal
Encoding: 61 61 30
Width: 795
Flags: MW
HStem: 183 21G<502.943 620.219> 504 141<414.38 450.172>
VStem: 49.5 171<323.55 472.282 323.55 535.84>
LayerCount: 2
Fore
SplineSet
622.5 438 m 0
 574.114257812 438 546.01171875 495.783203125 499.5 495 c 1
 478.48828125 499.21484375 460.844726562 504 439.5 504 c 0
 389.259765625 504 341.401367188 489 292.5 489 c 2
 253.5 489 l 2
 238.509765625 489 220.5 479.564453125 220.5 465 c 0
 220.5 182.099609375 745.5 388.866210938 745.5 255 c 0
 745.5 178.442382812 644.938476562 183 595.5 183 c 0
 410.38671875 183 49.5 158.08203125 49.5 432 c 0
 49.5 639.680664062 313.583984375 645 469.5 645 c 0
 483.831054688 645 528.393554688 645.088867188 541.5 636 c 1
 547.5 618 l 1
 567.305664062 596.7265625 655.5 538.905273438 655.5 501 c 0
 655.5 472.639648438 653.350585938 438 622.5 438 c 0
EndSplineSet
EndChar

StartChar: greater
Encoding: 62 62 31
Width: 581
Flags: MW
HStem: -12 603<246.001 406.136> 649 20G<441.165 504.843> 726 12
VStem: 47.5 195<621.274 630 621.274 654.896> 110.5 231<225.333 266.088>
LayerCount: 2
Fore
SplineSet
263.5 716 m 1xf0
 242.813476562 754.498046875 234.478515625 768.111328125 260.5 756 c 0
 268.56640625 752.245117188 292.513671875 738.456054688 302.5 738 c 0
 316.221679688 737.374023438 324.997070312 732.525390625 338.5 726 c 1
 347.900390625 726 371.5 731.928710938 371.5 717 c 0
 371.5 692.559570312 307.538085938 684.083007812 290.5 678 c 0
 269.861328125 670.631835938 236.543945312 657.838867188 242.5 630 c 0xf0
 242.5 612.547851562 234.502929688 591 257.5 591 c 0
 325.666015625 591 396.830078125 669 485.5 669 c 0
 524.186523438 669 533.5 629.30078125 533.5 597 c 0
 533.5 475.192382812 341.5 391.401367188 341.5 276 c 0
 341.5 174.666015625 464.5 143.662109375 464.5 69 c 0
 464.5 3.701171875 437.772460938 -12 374.5 -12 c 0
 274.428710938 -12 110.5 117.094726562 110.5 228 c 0xe8
 110.5 304.17578125 182.5 368.237304688 182.5 432 c 0
 182.5 505.268554688 47.5 535.509765625 47.5 621 c 0
 47.5 688.791992188 170.901367188 708 224.5 708 c 1
 263.5 716 l 1xf0
EndSplineSet
EndChar

StartChar: question
Encoding: 63 63 32
Width: 949
Flags: MW
HStem: 105 231<120.5 376.21>
VStem: 318.5 210<550.764 565.374>
LayerCount: 2
Fore
SplineSet
552.5 591 m 1
 534.5 588 l 1
 530.899414062 577.796875 528.5 580.801757812 528.5 570 c 0
 528.5 531.52734375 571.227539062 529.912109375 606.5 528 c 0
 656.922851562 525.266601562 670.721679688 580.356445312 696.5 612 c 1
 707.634765625 633.3125 718.400390625 657.087890625 747.5 654 c 0
 784.63671875 654 864.5 655.290039062 864.5 606 c 0
 864.5 452.427734375 660.5 451.87109375 660.5 357 c 0
 660.5 224.375976562 900.5 334.608398438 900.5 156 c 0
 900.5 133.100585938 897.888671875 102 870.5 102 c 0
 763.543945312 102 702.33203125 204 594.5 204 c 0
 495.7734375 204 433.920898438 105 318.5 105 c 0
 203.802734375 105 48.5 99.2001953125 48.5 252 c 0
 48.5 289.510742188 74.865234375 336 120.5 336 c 2
 141.5 336 l 2
 180.754882812 336 357.5 365.208007812 357.5 408 c 0
 357.5 449.905273438 318.5 479.658203125 318.5 525 c 0
 318.5 605.748046875 326.360351562 628.391601562 408.5 630 c 0
 454.032226562 630.891601562 534.5 663 552.5 591 c 1
EndSplineSet
EndChar

StartChar: at
Encoding: 64 64 33
Width: 1232
Flags: MW
HStem: 60 135<357.186 395.655 330.236 508.633> 81 363 414 306<1011.06 1025.5 925.603 1040.5 925.603 1085.5> 730 20G<230.672 354.272>
VStem: 56.5 237<288.59 411.482 288.59 412.985> 686.5 234<260.446 324.544 237.528 366.655>
LayerCount: 2
Fore
SplineSet
719.5 564 m 1x5c
 731.5 600 l 1
 740.5 600 l 2
 759.125 600 770.908203125 555 812.5 555 c 0
 926.35546875 555 876.706054688 720 974.5 720 c 0
 1076.49804688 720 1175.5 633.513671875 1175.5 528 c 0
 1175.5 463.586914062 1161.75 414 1085.5 414 c 2
 1040.5 414 l 2x3c
 981.629882812 414 920.5 352.088867188 920.5 297 c 0
 920.5 178.055664062 1169.5 241.248046875 1169.5 84 c 0
 1169.5 59.833984375 1162.609375 -15 1130.5 -15 c 0
 1026.80371094 -15 941.0703125 81 866.5 81 c 0x5c
 721.729492188 81 579.765625 60 437.5 60 c 0
 276.87109375 60 56.5 129.922851562 56.5 324 c 0
 56.5 501.970703125 131.84375 750 329.5 750 c 0
 379.043945312 750 509.5 767.462890625 509.5 690 c 0
 509.5 528.747070312 293.5 513.96484375 293.5 309 c 0
 293.5 268.1796875 303.971679688 195 356.5 195 c 0x9c
 434.809570312 195 686.5 193.891601562 686.5 327 c 0
 686.5 406.310546875 566.5 404.083984375 566.5 501 c 0
 566.5 544.288085938 584.75 558 629.5 558 c 0
 657.178710938 558 755.341796875 444.83984375 782.5 444 c 0
 820.5 443 890.5 449 872.5 483 c 0
 841.5 543 719.5 564 719.5 564 c 1x5c
EndSplineSet
EndChar

StartChar: A
Encoding: 65 65 34
Width: 981
Flags: MW
HStem: 90 492<224.974 227.539 130.911 319.202> 120 21G<805.529 872.893> 216 93 387 75 654 135<425.859 661.055>
VStem: 758.666 168<500.655 556.484>
LayerCount: 2
Fore
SplineSet
560.666015625 555 m 1x8c
 629.666015625 507 l 1
 677.666015625 465 l 1
 693.979492188 463.470703125 696.50390625 462 710.666015625 462 c 0
 732.990234375 462 758.666015625 473.255859375 758.666015625 498 c 0
 758.666015625 614.967773438 523.23828125 654 443.666015625 654 c 0
 408.051757812 654 375.938476562 645 341.666015625 645 c 0
 317.0859375 645 275.666015625 634.611328125 275.666015625 669 c 0
 275.666015625 789.782226562 483.555664062 789 560.666015625 789 c 0
 761.443359375 789 926.666015625 743.02734375 926.666015625 513 c 0
 926.666015625 488.310546875 941.446289062 354 911.666015625 354 c 0
 834.4296875 354 766.446289062 405.303710938 683.666015625 387 c 0
 607.47265625 370.15234375 452.049804688 429.93359375 428.666015625 333 c 1
 428.666015625 288.399414062 481.344726562 315.158203125 515.666015625 309 c 0
 627.178710938 288.9921875 868.162109375 365.891601562 902.666015625 213 c 1
 902.666015625 182.393554688 891.120117188 120 854.666015625 120 c 0
 756.391601562 120 700.462890625 216 599.666015625 216 c 0x7c
 481.65625 216 392.737304688 90 245.666015625 90 c 0
 204.282226562 90 50.666015625 72.9482421875 50.666015625 129 c 0
 50.666015625 195.345703125 242.666015625 221.583007812 242.666015625 312 c 0
 242.666015625 392.98828125 101.666015625 373.600585938 101.666015625 435 c 0
 101.666015625 477.618164062 100.15625 582 161.666015625 582 c 0
 293.411132812 582 431.734375 585.15234375 560.666015625 555 c 1x8c
EndSplineSet
EndChar

StartChar: B
Encoding: 66 66 35
Width: 886
Flags: MW
VStem: 374 156<409.805 463.654> 779 30
LayerCount: 2
Fore
SplineSet
125 690 m 1
 146 693 l 1
 140.393554688 701.17578125 199.615234375 708.973632812 209 708 c 0
 287.904296875 699.814453125 328.266601562 814.124023438 416 777 c 0
 428.9765625 770.359375 445.125976562 775.584960938 461 774 c 0
 514.169921875 774 587.930664062 846.375 659 852 c 0
 754.743164062 859.578125 847.012695312 758.823242188 809 663 c 1
 809 599.448242188 839 549.307617188 839 495 c 0
 839 449.258789062 820.536132812 396 767 396 c 0
 735.368164062 396 680 393.46484375 680 438 c 0
 680 496.647460938 779 502.493164062 779 564 c 0
 779 586.131835938 764.998046875 741 746 741 c 0
 695.237304688 741 425 721.586914062 425 645 c 0
 425 546.198242188 530 530.249023438 530 435 c 0
 530 384.609375 487.791992188 349.352539062 485 294 c 0
 481.90625 232.66796875 468.451171875 119.606445312 383 156 c 1
 347.57421875 156 95 128.724609375 95 228 c 0
 95 292.946289062 374 329.904296875 374 396 c 0
 374 531.307617188 47 640.073242188 47 648 c 0
 47 661.462890625 53.189453125 690 71 690 c 2
 125 690 l 1
EndSplineSet
EndChar

StartChar: C
Encoding: 67 67 36
Width: 696
Flags: MW
HStem: 192 21G<259.505 330.663> 291 459<439.502 482.15 433.808 483.37>
VStem: 469.5 48<416.132 528.156> 586.5 51
LayerCount: 2
Fore
SplineSet
280.5 624 m 1
 313.5 621 l 1
 317.782226562 616.00390625 325.5 615.485351562 325.5 606 c 0
 325.5 584.276367188 294.592773438 581.076171875 277.5 576 c 0
 243.883789062 566.016601562 192.736328125 569.7421875 175.5 540 c 1
 175.5 520.9375 225.978515625 525 238.5 525 c 0
 268.673828125 525 306.193359375 558 322.5 558 c 0
 358.908203125 558 392.141601562 499.591796875 376.5 462 c 0
 333.137695312 357.78515625 488.5546875 419.947265625 469.5 495 c 1
 469.5 561.311523438 421.5 633.745117188 421.5 708 c 0
 421.5 726.340820312 422.115234375 750 445.5 750 c 0
 518.799804688 750 649.5 683.787109375 649.5 600 c 0
 649.5 537.194335938 517.5 507.022460938 517.5 432 c 0
 517.5 400.263671875 637.5 395.9375 637.5 330 c 0
 637.5 264.34375 574.5 121.293945312 574.5 102 c 1
 574.5 140.107421875 586.5 175.448242188 586.5 213 c 0
 586.5 239.439453125 494.240234375 291 472.5 291 c 0
 406.50390625 291 365.826171875 192 295.5 192 c 0
 223.509765625 192 187.5 177.708984375 187.5 249 c 0
 187.5 300.193359375 262.5 342.490234375 262.5 396 c 0
 262.5 463.458007812 46.5 459.624023438 46.5 531 c 0
 46.5 607.650390625 211.405273438 608.399414062 280.5 624 c 1
EndSplineSet
EndChar

StartChar: D
Encoding: 68 68 37
Width: 747
Flags: MW
HStem: 685 20G<409.5 415.5 415.5 429.077>
LayerCount: 2
Fore
SplineSet
388.5 687 m 1
 409.5 705 l 1
 415.5 705 l 2
 442.654296875 705 452.225585938 683.619140625 448.5 657 c 0
 445.383789062 634.735351562 450.02734375 605.306640625 475.5 609 c 0
 558.291992188 609 516.16796875 753 628.5 753 c 0
 639.59375 753 703.5 758.07421875 703.5 741 c 0
 703.5 590.075195312 403.5 539.427734375 403.5 501 c 1
 403.5 501 685.5 435.107421875 685.5 240 c 0
 685.5 55.6015625 588.2578125 222 441.5 222 c 0
 368.861328125 222 43.5 39.419921875 43.5 168 c 0
 43.5 271.077148438 394.5 269.799804688 394.5 381 c 0
 394.5 459.743164062 133.5 468.115234375 133.5 615 c 0
 133.5 648.423828125 143.010742188 681 181.5 681 c 0
 249.631835938 681 322.50390625 704 388.5 687 c 1
EndSplineSet
EndChar

StartChar: E
Encoding: 69 69 38
Width: 894
Flags: MW
HStem: -186 110.735
VStem: 513 237<163.33 195 11.6548 331.008> 555 300<694.155 880.91>
LayerCount: 2
Fore
SplineSet
213 -135 m 1xc0
 249 -120 l 1
 249 27.7294921875 513 77.6591796875 513 249 c 0xc0
 513 413.016601562 123 421.547851562 123 528 c 0
 123 605.348632812 246.760742188 623.609375 297 681 c 0
 336.801757812 726.466796875 555 809.494140625 555 873 c 0
 555 888.819335938 440.6875 893.895507812 450 897 c 0
 579 940 855 801.883789062 855 753 c 0xa0
 855 635.309570312 560.184570312 579 480 579 c 2
 408 579 l 2
 390.788085938 579 186 570.013671875 186 555 c 1
 431.724609375 587.75 729.177734375 469.025390625 750 195 c 0
 753.89453125 143.750976562 750 91.875 750 42 c 0
 750 -18.6904296875 507 -18.49609375 507 -45 c 0
 507 -93.251953125 549.594726562 -77.5859375 444.948242188 -75.2646484375 c 1
 482.01171875 -79.4345703125 651 -131.962890625 651 -171 c 1
 615.465820312 -200.521484375 539.098632812 -175.299804688 492 -186 c 0
 434.672851562 -199.024414062 401.530273438 -140.651367188 351 -144 c 0
 296.0234375 -147.643554688 273.875 -186 216 -186 c 0
 118.084960938 -186 39 -171.732421875 39 -75 c 0
 39 -64.90625 45.7060546875 -69 57 -69 c 0
 73.6787109375 -69 81.716796875 -74.2060546875 99 -78 c 1
 168 -129 l 1
 213 -135 l 1xc0
EndSplineSet
EndChar

StartChar: F
Encoding: 70 70 39
Width: 1410
Flags: MW
HStem: 78 21G<1160.92 1218.42> 255 231 567 84
LayerCount: 2
Fore
SplineSet
1029 618 m 1
 1032 627 l 1
 1060.92871094 649.529296875 1088.84082031 656.782226562 1128 651 c 0
 1182.79589844 642.908203125 1278.52832031 673.063476562 1308 621 c 1
 1308 601.162109375 1267.32128906 567 1248 567 c 2
 1224 567 l 2
 1121.37207031 567 561 509.5078125 561 444 c 1
 561 455.306640625 693.357421875 486 720 486 c 0
 868.338867188 486 1365 499.037109375 1365 246 c 0
 1365 157.203125 1260.83203125 78 1176 78 c 0
 1145.8359375 78 1068 67.8701171875 1068 111 c 0
 1068 167.76953125 1164 194.01171875 1164 237 c 0
 1164 292.82421875 957.780273438 254.4453125 918 255 c 0
 618.516601562 259.176757812 185.966796875 214.65234375 45 483 c 1
 45 634.1328125 747.143554688 618 834 618 c 0
 884.078125 618 984.608398438 640.407226562 1029 618 c 1
EndSplineSet
EndChar

StartChar: G
Encoding: 71 71 40
Width: 637
Flags: MW
HStem: 195 21G<457.382 485>
LayerCount: 2
Fore
SplineSet
215 522 m 1
 257 462 l 1
 272 462 l 2
 281.450195312 462 290 465.447265625 290 477 c 2
 290 498 l 2
 290 527.375 323.915039062 558 353 558 c 0
 379.338867188 558 360.36328125 519 386 519 c 0
 431.975585938 519 448.420898438 585 476 585 c 0
 488.096679688 585 521 577.860351562 521 564 c 0
 521 517.45703125 437 497.135742188 437 468 c 0
 437 450.885742188 460.245117188 449.009765625 479 453 c 0
 553.805664062 468.916015625 566.954101562 404.221679688 590 354 c 1
 590 340.1328125 558.11328125 300.750976562 548 291 c 0
 520.772460938 264.748046875 521.484375 210.932617188 485 195 c 1
 429.763671875 195 351.670898438 304.595703125 311 288 c 0
 183.287109375 235.887695312 130.58984375 340.87109375 47 390 c 1
 47 434.509765625 158 426.153320312 158 471 c 0
 158 502.673828125 83 489.252929688 83 537 c 0
 83 550.397460938 95.2919921875 546 107 546 c 0
 142.897460938 546 177.38671875 526.80078125 215 522 c 1
EndSplineSet
EndChar

StartChar: H
Encoding: 72 72 41
Width: 983
Flags: MW
HStem: 114 234<317.662 346.941 287.2 391.431> 159 333<715.152 819.519> 213 441<551.952 601.166 551.952 604.097> 655 20G<490.156 506.441>
LayerCount: 2
Fore
SplineSet
446.5 594 m 1x90
 458.5 615 l 2
 461.219726562 625.576171875 467.5 635.130859375 467.5 651 c 0
 467.5 658.555664062 482.811523438 675 497.5 675 c 0
 515.381835938 675 537.404296875 654 566.5 654 c 0x30
 635.831054688 654 626.731445312 762.529296875 710.5 750 c 0
 768.112304688 741.3828125 899.5 780.793945312 899.5 699 c 0
 899.5 632.500976562 695.5 679.206054688 695.5 582 c 0
 695.5 556.4609375 695.803710938 492 734.5 492 c 0
 755.248046875 492 781.674804688 507 809.5 507 c 0
 862.416992188 507 932.5 475.680664062 932.5 411 c 0
 932.5 355.5078125 844.538085938 159 794.5 159 c 0x50
 709.500976562 159 650.693359375 213 557.5 213 c 0x30
 463.783203125 213 426.361328125 114 356.5 114 c 0
 278.82421875 114 50.5 135.663085938 50.5 234 c 0
 50.5 248.166015625 100.953125 504 137.5 504 c 0
 205.58203125 504 238.899414062 348 335.5 348 c 0
 358.381835938 348 509.5 420 509.5 420 c 1
 509.5 420 201.020507812 633.84375 239.5 630 c 0
 290.224609375 624.932617188 414.209960938 629.731445312 446.5 594 c 1x90
EndSplineSet
EndChar

StartChar: I
Encoding: 73 73 42
Width: 945
Flags: MW
HStem: 54 372 660 21G<736.663 767.417> 681 69 691 21G
VStem: 45 420<537.662 690.395> 210 510<218.174 348.715>
LayerCount: 2
Fore
SplineSet
207 708 m 2x98
 273 711 l 1
 307.147460938 704.11328125 352.96484375 687 393 687 c 0
 469.291015625 687 547.174804688 750 642 750 c 0xa8
 682.0234375 750 774 757.359375 774 696 c 0
 774 685.811523438 775.833007812 660 759 660 c 0xc8
 714.326171875 660 672.471679688 682.1953125 627 681 c 0
 563.500976562 679.331054688 465 646.3984375 465 573 c 0xa8
 465 502.32421875 511.17578125 426 582 426 c 0
 649.260742188 426 719.434570312 561 801 561 c 0
 838.493164062 561 900 529.515625 900 486 c 0
 900 364.02734375 720 342.286132812 720 231 c 0
 720 205.348632812 849 156.971679688 849 102 c 0
 849 72.119140625 811.938476562 76.4892578125 789 78 c 0
 709.116210938 83.2626953125 632.252929688 47.55078125 555 54 c 0
 466.112304688 61.4208984375 308.666015625 24.38671875 261 102 c 1
 261 139.599609375 357 125.034179688 357 168 c 0
 357 247.325195312 210 256.40234375 210 330 c 0xa4
 210 367.430664062 246 394.432617188 246 429 c 0
 246 544.529296875 45 604.78125 45 669 c 0
 45 711.7890625 90.9521484375 714 126 714 c 0
 141.98828125 714 190.18359375 708 207 708 c 2x98
EndSplineSet
EndChar

StartChar: J
Encoding: 74 74 43
Width: 982
Flags: MW
HStem: 6 156 109 20G<45.5 45.5> 252 228<522.5 732.605> 507 45 700 20G<359.564 474.027>
VStem: 219.5 204<109.34 210>
LayerCount: 2
Fore
SplineSet
891.5 528 m 1x7c
 918.5 525 l 1
 926.764648438 510.306640625 936.5 514.536132812 936.5 492 c 0
 936.5 442.227539062 915.5 395.9609375 915.5 345 c 2
 915.5 369 l 2
 915.5 405.576171875 890.328125 423.944335938 870.5 450 c 0
 816.690429688 520.708007812 720.291992188 502.833984375 642.5 507 c 0
 607.678710938 507 534.791992188 480 522.5 480 c 2
 603.5 480 l 2
 654.762695312 480 855.5 419.215820312 855.5 354 c 0
 855.5 342.8671875 831.232421875 312 819.5 312 c 2
 783.5 312 l 2
 758.143554688 312 747.7109375 252 717.5 252 c 0
 680.677734375 252 631.37890625 253.368164062 603.5 279 c 0
 538.231445312 339.006835938 423.383789062 305.287109375 423.5 210 c 0
 423.5 190.087890625 438.745117188 138 462.5 138 c 0
 499.10546875 138 552.518554688 160.955078125 597.5 162 c 0
 719.5859375 164.834960938 894.860351562 175.569335938 921.5 18 c 0
 921.5 4.3876953125 926.375976562 -9 912.5 -9 c 0
 799.956054688 -9 688.44140625 9.8740234375 573.5 6 c 0xbc
 392.4140625 -0.103515625 188.208007812 13.904296875 45.5 129 c 1
 45.5 129 107.397460938 102 111.5 102 c 0
 121.268554688 102 219.5 95.6806640625 219.5 123 c 0
 219.5 148.204101562 201.973632812 182.489257812 213.5 207 c 0
 251.241210938 287.255859375 137.038085938 305.584960938 111.5 366 c 1
 111.5 419.020507812 216.5 483.1328125 216.5 522 c 2
 216.5 555 l 2
 216.5 623.737304688 328.627929688 720 390.5 720 c 0
 557.5546875 720 708.790039062 552 843.5 552 c 1
 891.5 528 l 1x7c
EndSplineSet
EndChar

StartChar: K
Encoding: 75 75 44
Width: 989
Flags: MW
HStem: 132 21G 276 417<430.243 522.067>
LayerCount: 2
Fore
SplineSet
64.2509765625 636 m 1
 64.2509765625 636 -6.734375 690.842773438 109.250976562 654 c 0
 194.250976562 627 364.234375 693 496.250976562 693 c 0
 570.692382812 693 946.250976562 242.565429688 946.250976562 138 c 0
 946.250976562 105.788085938 716.040039062 111 691.250976562 111 c 0
 608.397460938 111 586.8828125 276 457.250976562 276 c 0
 370.740234375 276 299.6015625 201 220.250976562 201 c 0
 146.896484375 201 85.2509765625 269.955078125 85.2509765625 342 c 0
 85.2509765625 388.44140625 119.032226562 431.977539062 160.250976562 447 c 0
 175.5625 452.580078125 199.250976562 457.611328125 199.250976562 477 c 0
 200.443359375 502.25 171.68359375 516.091796875 166.250976562 540 c 0
 163.794921875 550.809570312 134.040039062 585.944335938 124.250976562 594 c 2
 73.2509765625 630 l 1
 64.2509765625 636 l 1
EndSplineSet
EndChar

StartChar: L
Encoding: 76 76 45
Width: 953
Flags: MW
HStem: 15 111 216 21G<592.143 635.222> 240 462<151.833 290.096> 252 381<451.834 685.506>
VStem: 43 264<574.161 688.632> 754 156<132.97 166.515 117.426 168.856>
LayerCount: 2
Fore
SplineSet
328 693 m 1xec
 340 717 l 2
 343.891601562 718.650390625 373 730.151367188 373 732 c 2
 373 756 l 2
 373 778.635742188 387.213867188 822 409 822 c 0
 444.263671875 822 631 783 631 783 c 1
 631 621.447265625 307 683.53515625 307 600 c 0
 307 548.322265625 362.819335938 465 424 465 c 0
 462.362304688 465 410.66796875 633 493 633 c 0
 538.4765625 633 874 637.8828125 874 612 c 0
 874 552.900390625 790 532.036132812 790 480 c 0
 790 448.400390625 862 452.05078125 862 402 c 0
 862 375.504882812 823 353.46484375 823 345 c 0
 823 281.069335938 910 204.030273438 910 129 c 0
 910 105.852539062 788.918945312 15 784 15 c 0
 732.673828125 15 436 12.3486328125 436 108 c 0
 436 119.411132812 458.375 126 466 126 c 2
 619 126 l 2
 633.573242188 126 754 115.940429688 754 150 c 0
 754 187.711914062 704.01171875 252 667 252 c 0xdc
 645.002929688 252 645.444335938 216 625 216 c 0
 559.28515625 216 545.596679688 294 478 294 c 2
 433 294 l 2
 420.900390625 294 418 293.799804688 418 294 c 0
 418 307.903320312 427 319.971679688 427 333 c 1
 427 314.9609375 376 323.038085938 376 321 c 0
 376 279.501953125 309.192382812 240 271 240 c 0
 227.608398438 240 115 283.197265625 115 333 c 0
 115 358.180664062 201.546875 431.614257812 199 504 c 0
 196.02734375 588.489257812 43.6025390625 573.541015625 43 660 c 0
 43 717.263671875 134.665039062 702 169 702 c 0
 203.400390625 702 298.462890625 699.831054688 328 693 c 1xec
EndSplineSet
EndChar

StartChar: M
Encoding: 77 77 46
Width: 909
Flags: MW
HStem: 72 405<420 664.554> 640 20G<150.705 174> 747 81
VStem: 321 72 501 363<248.746 305.055> 531 222<715.536 724.642> 597 69<546.118 552.975>
LayerCount: 2
Fore
SplineSet
321 665 m 0xf8
 321.614257812 685.057617188 308.999023438 698.594726562 288 708 c 0
 269.837890625 716.134765625 236.301757812 734.008789062 216 747 c 0
 185.859375 766.287109375 129.264648438 764.98828125 126 807 c 0
 126 821.91796875 123.485351562 828 141 828 c 0
 358.934570312 828 279.184570312 769.272460938 384 642 c 0
 392.373046875 631.833007812 393.126953125 619.188476562 393 606 c 0
 393 592.596679688 390.018554688 577.134765625 393 564 c 0
 399.055664062 537.326171875 386.801757812 485.32421875 420 477 c 1
 445.811523438 477 597 483.344726562 597 525 c 0xf2
 597 580.94921875 531 632.947265625 531 702 c 0
 531 747.284179688 545.661132812 819 606 819 c 0
 648.08203125 819 753 809.01953125 753 750 c 0xf4
 753 681.071289062 666 656.27734375 666 600 c 0xf2
 666 492.236328125 864 488.703125 864 330 c 0
 864 167.491210938 747.108398438 72 582 72 c 0
 532.3984375 72 45 40.974609375 45 153 c 0
 45 201.30859375 501 148.051757812 501 261 c 0
 501 349.109375 69 441.26171875 69 597 c 0
 69 650.853515625 127.41015625 660 174 660 c 1
 174 660 270.966796875 651.3984375 285 648 c 0
 316.276367188 640.42578125 318.317382812 652.932617188 321 665 c 0xf8
EndSplineSet
EndChar

StartChar: N
Encoding: 78 78 47
Width: 1396
Flags: MW
HStem: 174 21G<733.455 789.039> 480 129 754 20G<182.154 194.118>
LayerCount: 2
Fore
SplineSet
232.455078125 711 m 1
 291.455078125 510 396.427734375 666.345703125 490.455078125 663 c 0
 541.081054688 661.19921875 850.455078125 588.400390625 850.455078125 579 c 0
 850.455078125 566.264648438 847.455078125 555.622070312 847.455078125 543 c 0
 847.455078125 410.0546875 1348.45507812 587.418945312 1348.45507812 366 c 0
 1348.45507812 285.047851562 1363.42382812 255 1282.45507812 255 c 0
 1220.48242188 255 1159.86132812 237 1102.45507812 237 c 0
 1073.13769531 237 1048.79296875 246 1021.45507812 246 c 0
 928.327148438 246 844.622070312 174 733.455078125 174 c 0
 657.360351562 174.838867188 579.6953125 171.487304688 505.455078125 177 c 0
 417.905273438 183.500976562 391.455078125 227.1484375 391.455078125 321 c 0
 391.455078125 360.481445312 460.455078125 361.348632812 460.455078125 405 c 1
 422.333984375 484.37890625 283.844726562 466.112304688 199.455078125 480 c 0
 124.236328125 492.37890625 46.455078125 457.12109375 46.455078125 567 c 0
 46.455078125 598.212890625 64.9404296875 609 100.455078125 609 c 0
 123.198242188 612.685546875 143.591796875 602.991210938 163.455078125 594 c 0
 178.05859375 587.389648438 181.500976562 576 199.455078125 576 c 0
 203.80078125 576 205.455078125 591.388671875 205.455078125 597 c 0
 208.466796875 615.794921875 186.366210938 627.029296875 178.455078125 636 c 0
 165.96875 650.158203125 148.455078125 660.09375 148.455078125 687 c 0
 145.266601562 704.288085938 158.748046875 715.595703125 163.455078125 732 c 0
 165.416015625 738.834960938 176.853515625 774 187.455078125 774 c 0
 200.780273438 774 216.569335938 765.771484375 229.455078125 762 c 1
 232.455078125 711 l 1
EndSplineSet
EndChar

StartChar: O
Encoding: 79 79 48
Width: 1068
Flags: MW
HStem: 105 21G<160.032 243.017> 240 306<388.5 602.233>
VStem: 103.5 519<500.844 510.573 420.936 558.586>
LayerCount: 2
Fore
SplineSet
310.5 573 m 2
 340.5 570 l 1
 358.385742188 560.8671875 365.389648438 546 388.5 546 c 0
 399.657226562 546 411.725585938 546.122070312 424.5 546 c 0
 496.681640625 545.3125 582.354492188 574.362304688 607.5 645 c 0
 627.393554688 700.885742188 683.627929688 730.787109375 742.5 720 c 0
 761.926757812 720 844.5 730.974609375 844.5 702 c 0
 844.5 567.650390625 622.5 574.146484375 622.5 447 c 0
 622.5 394.872070312 1021.5 427.934570312 1021.5 261 c 0
 1021.5 190.896484375 1017.42773438 144 940.5 144 c 0
 794.078125 144 677.965820312 240 526.5 240 c 0
 395.439453125 240 304.534179688 105 181.5 105 c 0
 138.564453125 105 46.5 93.837890625 46.5 156 c 0
 46.5 308.541015625 271.5 293.498046875 271.5 426 c 0
 271.5 475.58984375 103.5 464.688476562 103.5 537 c 0
 103.5 580.171875 184.677734375 579 214.5 579 c 0
 235.44921875 579 288.481445312 575.202148438 310.5 573 c 2
EndSplineSet
EndChar

StartChar: P
Encoding: 80 80 49
Width: 1129
Flags: MW
HStem: 60 21G 444 108<88.2949 108.149 84.4116 211.829> 649 20G<336.218 390.745>
LayerCount: 2
Fore
SplineSet
174.5 579 m 1
 143.5 651 302.935546875 669 369.5 669 c 0
 411.990234375 669 422.771484375 501 474.5 501 c 0
 516.075195312 501 590.478515625 723 681.5 723 c 1
 774.701171875 576.451171875 1044.21582031 514.759765625 972.5 297 c 0
 918.94140625 134.37109375 1086.5 179.805664062 1086.5 60 c 0
 1086.5 27.3583984375 1030.45996094 39 1011.5 39 c 0
 929.915039062 39 762.5 103.9609375 762.5 201 c 0
 762.5 231.2265625 846.5 223.278320312 846.5 258 c 0
 846.5 311.552734375 743.8671875 369 696.5 369 c 0
 662.590820312 369 648.5 341.853515625 648.5 315 c 0
 648.5 270.0859375 654.5 223.760742188 654.5 180 c 0
 654.5 173.372070312 587.297851562 177 582.5 177 c 0
 342.201171875 177 318.157226562 444 105.5 444 c 0
 71.08984375 444 42.5 491.0078125 42.5 522 c 0
 42.5 545.758789062 75.3232421875 552 93.5 552 c 0
 122.798828125 552 142.83203125 528 177.5 528 c 0
 195.337890625 528 204.5 522.8515625 204.5 543 c 0
 204.5 556.0390625 197.327148438 556.172851562 192.5 561 c 2
 174.5 579 l 1
EndSplineSet
EndChar

StartChar: Q
Encoding: 81 81 50
Width: 1181
Flags: W
LayerCount: 2
Fore
SplineSet
309.408203125 579 m 0
 371.408203125 567 417.831054688 605.1484375 471.408203125 594 c 0
 619.228515625 563.241210938 762.185546875 502.477539062 918.408203125 507 c 1
 1068.11328125 549.83203125 1139.55273438 380.927734375 1125.40820312 258 c 1
 1142.59863281 203.1640625 1101.7890625 183.204101562 1053.40820312 198 c 0
 988.509765625 217.84765625 929.918945312 179.147460938 870.408203125 165 c 0
 823.107421875 153.754882812 772.697265625 138.897460938 723.408203125 126 c 0
 634.538085938 99.5400390625 575.575195312 151.836914062 507.408203125 180 c 0
 442.262695312 206.9140625 412.622070312 276.610351562 348.408203125 288 c 0
 284.149414062 299.397460938 219.642578125 307.40625 156.408203125 300 c 0
 53.5537109375 287.953125 45.2001953125 412.671875 54.408203125 486 c 0
 60.3330078125 533.186523438 52.216796875 681 135.408203125 681 c 0
 156.620117188 681.794921875 163.764648438 659.197265625 180.408203125 651 c 0
 193.56640625 644.518554688 252.408203125 590 309.408203125 579 c 0
EndSplineSet
EndChar

StartChar: R
Encoding: 82 82 51
Width: 803
Flags: MW
HStem: 366 432<241 273.68> 673 20G<492.346 505.176>
LayerCount: 2
Fore
SplineSet
106 636 m 0x80
 106 725 189 798 293 798 c 0x80
 374.5234375 798 443.7578125 753.143554688 469.875976562 690.88671875 c 1
 478.62109375 692.272460938 487.692382812 693 497 693 c 0x40
 513.352539062 693 529.021484375 690.75390625 543.510742188 686.638671875 c 1
 559.799804688 718.236328125 583.147460938 738 609 738 c 0
 647.923828125 738 680.537109375 693.19921875 692.3046875 630.663085938 c 1
 706.91015625 623.90234375 718.708984375 603.014648438 723.995117188 575.1640625 c 1
 741.213867188 554.82421875 751 531.590820312 751 507 c 0
 751 428 650 363 526 363 c 0
 474.737304688 363 427.40625 374.108398438 389.515625 392.723632812 c 1
 353.97265625 376.345703125 302.360351562 366 245 366 c 0
 138 366 52 402 52 446 c 0
 52 455.899414062 56.353515625 465.342773438 64.3193359375 474.03515625 c 1
 56.65234375 488.040039062 52 506.2109375 52 526 c 0
 52 563.59375 68.7900390625 595.34765625 91.1435546875 603.796875 c 1
 94.7119140625 613.109375 99.765625 621.990234375 106.11328125 630.305664062 c 0
 106.038085938 632.196289062 106 634.094726562 106 636 c 0x80
EndSplineSet
EndChar

StartChar: S
Encoding: 83 83 52
Width: 912
Flags: MW
HStem: 39 72 69 21G<827.516 857.984> 148 20G<56.063 78.0068 665.976 748.197> 168 222<665.976 671.318 671.318 743.473 647.318 748.197> 733 20G<400.468 452.753>
VStem: 446.318 213<626.506 628.709>
LayerCount: 2
Fore
SplineSet
362.318359375 561 m 1xac
 365.318359375 558 l 1
 434.318359375 558 l 1
 439.727539062 577.833984375 446.318359375 579.471679688 446.318359375 603 c 0
 446.318359375 654.418945312 365.318359375 640.834960938 365.318359375 696 c 0
 365.318359375 734.962890625 381.618164062 753 419.318359375 753 c 0
 486.188476562 753 659.318359375 761.905273438 659.318359375 657 c 0
 659.318359375 596.012695312 587.318359375 566.475585938 587.318359375 498 c 0
 587.318359375 470.842773438 604.44140625 390 647.318359375 390 c 2
 671.318359375 390 l 2
 815.626953125 390 860.318359375 337.711914062 860.318359375 195 c 1
 860.318359375 195 867.650390625 69 848.318359375 69 c 0
 806.713867188 69 777.075195312 168 719.318359375 168 c 0x5c
 612.633789062 168 529.372070312 39 407.318359375 39 c 0
 341.376953125 39 56.318359375 29.3134765625 56.318359375 144 c 0
 56.318359375 146.325195312 52.8076171875 168 59.318359375 168 c 0
 96.6953125 168 161.021484375 111 215.318359375 111 c 0
 232.737304688 111 338.318359375 286.51953125 338.318359375 309 c 0
 338.318359375 418.6484375 50.318359375 429.1015625 50.318359375 507 c 0
 50.318359375 605.059570312 201.607421875 594 272.318359375 594 c 1
 362.318359375 561 l 1xac
EndSplineSet
EndChar

StartChar: T
Encoding: 84 84 53
Width: 884
Flags: MW
HStem: 120 246<714.177 744.265 704.269 781.721> 198 153<593.714 617.097> 736 20G<563.839 619.097>
VStem: 211 378<398.968 411 398.968 421.658>
LayerCount: 2
Fore
SplineSet
370 636 m 1x70
 373 627 l 1
 439 618 l 1
 448 696 l 1
 496.224609375 714.66796875 523.678710938 756 604 756 c 0
 634.194335938 756 748 767.541015625 748 714 c 0
 748 651.790039062 707.803710938 629.828125 673 591 c 0
 628.806640625 541.696289062 603.12890625 473.637695312 589 411 c 1
 589 386.935546875 577.427734375 351 610 351 c 0x70
 645.159179688 351 684.537109375 366 724 366 c 0
 764.530273438 366 838 327.915039062 838 282 c 0
 838 230.041015625 815.44140625 120 748 120 c 0xb0
 680.354492188 120 651.194335938 198 583 198 c 0
 524.37109375 198 526.82421875 66 445 66 c 0
 364.748046875 66 46 37.7919921875 46 174 c 0
 46 296.690429688 211 297.051757812 211 378 c 0
 211 465.315429688 100 504.296875 100 591 c 0
 100 651.930664062 227.512695312 645 265 645 c 0
 290.049804688 645 344.349609375 636 370 636 c 1x70
EndSplineSet
EndChar

StartChar: U
Encoding: 85 85 54
Width: 1019
Flags: MW
HStem: 48 21G<902.587 950.772> 135 186<680.119 682.111 605.339 799.978> 691 21G
VStem: 158.5 285<382.827 457.123 364.276 469.94>
LayerCount: 2
Fore
SplineSet
311.5 711 m 1
 260.5 651 l 1
 260.5 639 l 2
 260.5 600.315429688 296.30859375 579 332.5 579 c 0
 413.109375 579 446.662109375 753 593.5 753 c 0
 657.069335938 753 698.5 696.334960938 698.5 636 c 0
 698.5 469.849609375 443.5 536.24609375 443.5 378 c 0
 443.5 350.551757812 450.873046875 270 485.5 270 c 0
 536.041015625 270 578.178710938 321 632.5 321 c 0
 731.721679688 321 971.5 328.84375 971.5 183 c 0
 971.5 156.973632812 966.044921875 48 935.5 48 c 0
 869.674804688 48 835.456054688 135 764.5 135 c 0
 595.737304688 135 451.662109375 63.2529296875 269.5 57 c 0
 195.676757812 54.4658203125 65.9189453125 59.244140625 65.5 156 c 0
 65.5 253.491210938 158.5 336.653320312 158.5 429 c 0
 158.5 510.880859375 47.5 520.306640625 47.5 603 c 0
 47.5 705.508789062 233.036132812 685.735351562 311.5 711 c 1
EndSplineSet
EndChar

StartChar: V
Encoding: 86 86 55
Width: 1320
Flags: MW
HStem: 48 519<948.07 1035.07 933.658 1084.76> 282 228<600.085 701.054 594.602 773.753>
LayerCount: 2
Fore
SplineSet
116.359375 450 m 0x40
 189.287109375 517.010742188 279.301757812 606 389.359375 606 c 0
 493.734375 606 547.844726562 510 641.359375 510 c 0x40
 760.749023438 510 871.956054688 567 995.359375 567 c 0
 1074.77734375 567 1268.359375 509.993164062 1268.359375 402 c 0
 1268.359375 374.826171875 1109.359375 342.504882812 1109.359375 243 c 0
 1109.359375 180.424804688 1187.359375 189.25390625 1187.359375 132 c 0
 1187.359375 45.6328125 1117.15332031 48 1052.359375 48 c 0x80
 843.78125 48 870.147460938 282 677.359375 282 c 0
 522.810546875 282 377.591796875 190.80078125 218.359375 210 c 1
 112.615234375 179.098632812 39.3330078125 267.102539062 53.359375 363 c 1
 66.564453125 384.767578125 65.515625 403.282226562 116.359375 450 c 0x40
EndSplineSet
EndChar

StartChar: W
Encoding: 87 87 56
Width: 1374
Flags: MW
HStem: 96 501 315 69
LayerCount: 2
Fore
SplineSet
256.655273438 456 m 2x40
 248.989257812 462.671875 253.655273438 472.046875 253.655273438 480 c 0
 253.655273438 565.36328125 447.026367188 636 526.655273438 636 c 1
 619.86328125 583.046875 729.317382812 596.516601562 835.655273438 597 c 0
 1003.83398438 597.264648438 1237.49511719 601.333984375 1312.65527344 420 c 0
 1321.28417969 399.181640625 1324.65527344 386.2265625 1324.65527344 363 c 0
 1324.65527344 325.989257812 729.235351562 96 592.655273438 96 c 0x80
 509.125 96 397.655273438 203.860351562 397.655273438 288 c 2
 397.655273438 330 l 2
 397.655273438 365.512695312 351.787109375 354 331.655273438 354 c 0
 281.3828125 358.377929688 231.83203125 349.946289062 187.655273438 330 c 0
 160.735351562 317.844726562 125.548828125 315 97.6552734375 315 c 0
 64.900390625 315 49.6552734375 337.390625 49.6552734375 366 c 0
 43.830078125 418.876953125 121.659179688 404.11328125 154.655273438 396 c 0
 187.772460938 387.857421875 217.284179688 384 253.655273438 384 c 0
 265.638671875 384 286.655273438 395.986328125 286.655273438 411 c 2
 286.655273438 417 l 1
 256.655273438 456 l 2x40
EndSplineSet
EndChar

StartChar: X
Encoding: 88 88 57
Width: 1177
Flags: MW
HStem: 264 276
LayerCount: 2
Fore
SplineSet
261.80859375 516 m 1
 246.80859375 560 496.920898438 536.18359375 594.80859375 540 c 0
 635.97265625 541.60546875 674.936523438 523.151367188 717.80859375 525 c 0
 846.129882812 530.763671875 975.89453125 518.329101562 1086.80859375 450 c 0
 1101.35351562 441.0390625 1125.80859375 426.413085938 1125.80859375 402 c 0
 1122.60839844 385.638671875 1118.20117188 363.596679688 1098.80859375 366 c 0
 1073.41210938 369.147460938 1032.80859375 342.629882812 1032.80859375 318 c 0
 1032.80859375 305.364257812 1038.80859375 302.01953125 1038.80859375 291 c 0
 1038.80859375 223.029296875 913.616210938 225 873.80859375 225 c 0
 806.147460938 222.534179688 753.409179688 275.1953125 690.80859375 285 c 0
 573.201171875 303.419921875 467.522460938 264 351.80859375 264 c 0
 241.89453125 264 69.052734375 300.947265625 51.80859375 426 c 0
 43.4599609375 486.536132812 121.9140625 471.0859375 153.80859375 462 c 0
 177.6796875 455.19921875 228.80859375 453.22265625 228.80859375 480 c 0
 228.80859375 492.682617188 226.590820312 502.430664062 225.80859375 510 c 1
 261.80859375 516 l 1
EndSplineSet
EndChar

StartChar: Y
Encoding: 89 89 58
Width: 774
Flags: MW
HStem: 153 594<531.305 555.348 493.7 638.285> 646 20G
VStem: 43.5 345<490.225 538.758 426.853 603.272>
LayerCount: 2
Fore
SplineSet
166.5 666 m 1x60
 191.515625 659.015625 216.672851562 652.172851562 241.5 645 c 1
 334.5 642 l 2
 341.712890625 638.182617188 374.875976562 673.973632812 379.5 681 c 0
 410.161132812 727.591796875 463.900390625 747 523.5 747 c 0
 587.196289062 747 670.5 738.314453125 670.5 660 c 0
 670.5 534.501953125 388.5 600.515625 388.5 477 c 0
 388.5 376.706054688 730.5 420.6171875 730.5 258 c 0
 730.5 192.682617188 669.0703125 153 607.5 153 c 0xa0
 455.110351562 153 43.5 407.450195312 43.5 573 c 0
 43.5 633.543945312 166.5 655.002929688 166.5 666 c 1x60
EndSplineSet
EndChar

StartChar: Z
Encoding: 90 90 59
Width: 1250
Flags: MW
HStem: 688 20G<92.8032 145.611>
VStem: 46.6113 171
LayerCount: 2
Fore
SplineSet
487.611328125 603 m 1
 535.611328125 603 l 2
 621.759765625 603 705.337890625 630 793.611328125 630 c 0
 1080.99707031 630 1018.50683594 412.034179688 1111.61132812 174 c 0
 1124.21582031 141.774414062 1204.61132812 94.98046875 1204.61132812 63 c 1
 1189.58300781 33.4345703125 1146.10351562 19.8369140625 1114.61132812 15 c 0
 973.078125 -6.7353515625 966.702148438 196.97265625 859.611328125 228 c 1
 751.219726562 204.225585938 582.059570312 233.651367188 529.611328125 123 c 0
 505.362304688 71.8427734375 436.484375 80.857421875 388.611328125 75 c 0
 213.028320312 53.515625 90.994140625 203.140625 70.611328125 366 c 0
 63.046875 426.436523438 39.8427734375 485.846679688 46.611328125 549 c 0
 55.451171875 631.491210938 39.9951171875 708 145.611328125 708 c 0
 188.377929688 704.659179688 220.732421875 667.779296875 217.611328125 627 c 0
 213.477539062 573.01171875 280.3046875 569.592773438 322.611328125 576 c 0
 352.392578125 580.509765625 379.052734375 582.123046875 409.611328125 588 c 2
 487.611328125 603 l 1
EndSplineSet
EndChar

StartChar: bracketleft
Encoding: 91 91 60
Width: 1208
Flags: MW
HStem: 114 21G<888.215 1003.59> 213 222 213 258<206.785 356.304>
LayerCount: 2
Fore
SplineSet
74.3037109375 477 m 1xa0
 -60.6962890625 492 303.302734375 557.76171875 416.303710938 597 c 0
 558.930664062 646.525390625 1163.30371094 412.802734375 1163.30371094 222 c 0
 1163.30371094 129.426757812 1038.875 114 968.303710938 114 c 0
 808.125976562 114 719.701171875 315 566.303710938 315 c 0
 450.624023438 315 363.278320312 213 248.303710938 213 c 0xa0
 165.265625 213 86.3037109375 224.53515625 86.3037109375 315 c 0
 86.3037109375 414.291015625 206.749023438 449.1171875 296.303710938 435 c 0xc0
 321.024414062 431.102539062 365.303710938 426.026367188 365.303710938 456 c 0
 365.303710938 469.536132812 363.978515625 459.061523438 356.303710938 471 c 1
 74.3037109375 477 l 1xa0
EndSplineSet
EndChar

StartChar: backslash
Encoding: 92 92 61
Width: 1332
Flags: W
LayerCount: 2
Fore
SplineSet
130.739257812 474 m 1
 132.528320312 467.5859375 155.19140625 495 160.739257812 495 c 0
 329.276367188 495 489.915039062 561 658.739257812 561 c 0
 766.038085938 561 1279.73925781 523.111328125 1279.73925781 372 c 0
 1279.73925781 329.59375 1190.94726562 318 1162.73925781 318 c 2
 1123.73925781 318 l 2
 987.40234375 318 885.435546875 180 733.739257812 180 c 0
 534.448242188 180 375.915039062 302.108398438 175.739257812 270 c 0
 108.1953125 257.693359375 35.375 275.99609375 55.7392578125 360 c 0
 58.11328125 369.791015625 67.7392578125 399.82421875 67.7392578125 408 c 2
 67.7392578125 429 l 2
 67.7392578125 439.775390625 114.578125 452.551757812 121.739257812 456 c 1
 130.739257812 474 l 1
EndSplineSet
EndChar

StartChar: bracketright
Encoding: 93 93 62
Width: 1066
Flags: MW
HStem: 180 21G<878.543 942.909>
VStem: 57.8906 93
LayerCount: 2
Fore
SplineSet
207.890625 471 m 1
 279.890625 471 l 2
 308.688476562 471 334.3046875 477 363.890625 477 c 0
 465.916015625 477 1014.890625 364.171875 1014.890625 222 c 0
 1014.890625 177.810546875 957.926757812 180 927.890625 180 c 0
 829.1953125 180 733.709960938 192 636.890625 192 c 0
 549.197265625 189.00390625 470.690429688 141.4140625 381.890625 153 c 1
 141.056640625 94.3935546875 20.2177734375 358.842773438 57.890625 558 c 0
 61.6708984375 577.985351562 43.2392578125 624 72.890625 624 c 0
 107.548828125 624 126.341796875 587.215820312 150.890625 570 c 1
 165.890625 501 l 1
 207.890625 471 l 1
EndSplineSet
EndChar

StartChar: asciicircum
Encoding: 94 94 63
Width: 1121
Flags: MW
HStem: 126 21G<700.185 809.381> 348 228<550.911 835.036> 700 20G<116.542 147.273>
LayerCount: 2
Fore
SplineSet
229 564 m 2
 231.836914062 548.423828125 261.373046875 561 289 561 c 0
 455.629882812 561 621.446289062 576 790 576 c 0
 880.072265625 576 1075 351.0546875 1075 246 c 0
 1075 106.5546875 855.76171875 126 763 126 c 0
 637.370117188 126 595.000976562 348 565 348 c 0
 536.822265625 348 262 303.901367188 262 258 c 2
 262 234 l 2
 262 340.326171875 46 542.16015625 46 669 c 0
 46 703.0078125 100.083984375 720 133 720 c 0
 161.545898438 720 171.068359375 693.612304688 193 678 c 1
 229 564 l 2
EndSplineSet
EndChar

StartChar: underscore
Encoding: 95 95 64
Width: 815
Flags: MW
HStem: 150 570<567.514 621.071 534.107 656.736>
VStem: 176.669 588<360.1 533.378>
LayerCount: 2
Fore
SplineSet
158.668945312 615 m 2
 203.668945312 621 l 2
 231.9765625 621 253.833007812 625.866210938 281.668945312 636 c 0
 372.515625 669.073242188 474.545898438 720 593.668945312 720 c 0
 648.47265625 720 645.810546875 693.907226562 683.668945312 663 c 0
 732.517578125 623.12109375 764.668945312 568.756835938 764.668945312 498 c 0
 764.668945312 439.626953125 689.668945312 418.14453125 689.668945312 357 c 0
 689.668945312 321.21484375 746.668945312 322.275390625 746.668945312 279 c 0
 746.668945312 193.993164062 701.802734375 150 611.668945312 150 c 0
 523.359375 150 164.668945312 164.346679688 164.668945312 309 c 0
 164.668945312 333.4609375 176.668945312 351.200195312 176.668945312 369 c 0
 176.668945312 441.047851562 60.8623046875 458.481445312 50.6689453125 531 c 0
 44.521484375 574.740234375 124 610.376953125 158.668945312 615 c 2
EndSplineSet
EndChar

StartChar: grave
Encoding: 96 96 65
Width: 1298
Flags: MW
HStem: 132 21G<628.939 671.124 1168.47 1188.68> 297 102<280.46 280.509 47.7002 316.244> 525 81
LayerCount: 2
Fore
SplineSet
194.700195312 579 m 2
 231.700195312 592 377.3359375 607.064453125 440.700195312 606 c 0
 572.4375 603.786132812 700.705078125 583.629882812 839.700195312 591 c 0
 867.88671875 592.494140625 1052.70019531 592.604492188 1052.70019531 582 c 0
 1052.70019531 570.40625 977.700195312 553.842773438 977.700195312 546 c 0
 977.700195312 543.166015625 1043.70019531 545.537109375 1043.70019531 528 c 0
 1043.70019531 517.942382812 1040.70019531 506.571289062 1040.70019531 495 c 0
 1040.70019531 460.946289062 797.700195312 470.7578125 797.700195312 429 c 0
 797.700195312 421.983398438 845.700195312 423 845.700195312 423 c 1
 845.700195312 423 1022.70019531 399.098632812 1022.70019531 399 c 0
 991.424804688 388.474609375 1013.12304688 366.260742188 1037.70019531 375 c 0
 1100.0234375 397.162109375 1160.70019531 290 1130.70019531 348 c 0
 1074.98828125 455.708984375 1118 549 1133.70019531 549 c 0
 1142.04980469 549 1127.57128906 465 1145.70019531 465 c 0
 1165.72265625 465 1150.74609375 498 1160.70019531 498 c 1
 1236.64355469 340.37109375 1247.26074219 364.717773438 1247.70019531 219 c 0
 1247.72558594 210.442382812 1256.48535156 150 1241.70019531 150 c 0
 1240.4921875 150 1232.39746094 159 1223.70019531 159 c 0
 1205.13085938 159 1195.65625 132 1181.70019531 132 c 0
 1155.23925781 132 1160.67675781 180 1139.70019531 180 c 0
 1106.71875 180 1096.41015625 123 1082.70019531 123 c 0
 1047.15332031 123 1037.19726562 186 989.700195312 186 c 0
 963.057617188 186 939.7578125 162 920.700195312 162 c 0
 883.5390625 162 881.356445312 345 854.700195312 345 c 0
 788.663085938 345 789.372070312 162 749.700195312 162 c 0
 714.818359375 162 740.096679688 228 707.700195312 228 c 0
 680.192382812 228 682.546875 132 659.700195312 132 c 0
 598.177734375 132 576.546875 531 536.700195312 531 c 0
 492.272460938 531 480.640625 183 443.700195312 183 c 0
 419.373046875 183 391.23046875 333 356.700195312 333 c 0
 317.895507812 333 341.787109375 297 290.700195312 297 c 0
 270.220703125 297 47.7001953125 369.779296875 47.7001953125 399 c 1
 272.700195312 399 l 2
 288.317382812 399 313.083007812 408 326.700195312 408 c 2
 344.700195312 408 l 1
 344.700195312 408 413.700195312 413.58203125 413.700195312 423 c 1
 413.700195312 423 170.700195312 452.489257812 170.700195312 486 c 0
 170.700195312 512.028320312 380.700195312 516.849609375 380.700195312 525 c 1
 380.700195312 524.799804688 378.400390625 525 368.700195312 525 c 2
 260.700195312 525 l 2
 189.421875 525 168.385742188 550.4375 119.700195312 564 c 1
 182.700195312 576 l 1
 194.700195312 579 l 2
EndSplineSet
EndChar

StartChar: a
Encoding: 97 97 66
Width: 981
Flags: MW
HStem: 53 21G<177.546 246.869>
VStem: 225 672<314.565 328.565 135.293 410.382>
LayerCount: 2
Fore
SplineSet
198 641 m 0
 198 663 233.168945312 641 255 641 c 0
 527.649414062 641 897 487.130859375 897 170 c 0
 897 100.586914062 796.072265625 24 718 24 c 0
 643.908203125 26.9716796875 670.180664062 90.6513671875 594 80 c 0
 537.112304688 72.0458984375 516.069335938 149 458 149 c 0
 387.541015625 149 283.73828125 53 210 53 c 0
 145.091796875 53 144 134.299804688 144 188 c 0
 144 232.744140625 225 273.129882812 225 356 c 0
 225 464.763671875 84 491.004882812 84 599 c 0
 87.66796875 615.467773438 119.079101562 601.294921875 132 602 c 0
 180.920898438 604.669921875 211.387695312 548 255 548 c 0
 275.502929688 548 198 598 198 641 c 0
EndSplineSet
EndChar

StartChar: b
Encoding: 98 98 67
Width: 886
Flags: MW
HStem: 56 21G<734.588 766.096> 83 333<329.11 526.922> 194 588<560.986 730.586> 605 66<264.557 352.052> 704 57<425.206 483.762>
VStem: 213.5 90<580.692 593.653> 555.5 105<310.438 542.847>
LayerCount: 2
Fore
SplineSet
399.5 608 m 0xd6
 399.286132812 596.688476562 386.190429688 593 375.5 593 c 0
 362.198242188 593 358.604492188 605 345.5 605 c 0
 336.286132812 605 303.5 603.427734375 303.5 599 c 0
 303.5 562.384765625 472.997070312 416 507.5 416 c 0
 546.344726562 416 555.5 471.860351562 555.5 497 c 0
 555.5 588.694335938 538.0234375 704 429.5 704 c 0
 355.567382812 704 288.403320312 686 219.5 686 c 0
 178.990234375 686 93.5 678.89453125 93.5 731 c 0
 93.5 772.828125 408.911132812 761 441.5 761 c 0xde
 535.142578125 761 624.194335938 782 714.5 782 c 0
 746.671875 782 792.5 775.426757812 792.5 737 c 0
 792.5 581.415039062 660.5 478.131835938 660.5 317 c 0
 660.5 303.875 765.5 267.405273438 765.5 200 c 0
 765.5 181.202148438 781.692382812 56 750.5 56 c 0
 718.67578125 56 647.171875 194 600.5 194 c 0xa6
 521.471679688 194 459.958007812 83 354.5 83 c 0
 303.719726562 83 153.5 71.5458984375 153.5 149 c 0
 153.5 309.999023438 408.5 227.4921875 408.5 335 c 0
 408.5 422.918945312 213.5 433.903320312 213.5 569 c 0
 213.5 618.305664062 234.614257812 671 294.5 671 c 0
 316.16796875 671 400.5 661 399.5 608 c 0xd6
EndSplineSet
EndChar

StartChar: c
Encoding: 99 99 68
Width: 696
Flags: MW
HStem: 69 21G<382.808 431.743> 222 201<106.578 252.443>
VStem: 187.866 90<610.713 641.98> 277.866 84<534.614 543.251 534.614 654.256>
LayerCount: 2
Fore
SplineSet
328.866210938 720 m 0xe0
 351.826171875 731.86328125 277.866210938 675.512695312 277.866210938 633 c 0xe0
 277.866210938 588.42578125 361.866210938 613.204101562 361.866210938 552 c 0
 361.866210938 517.228515625 301.866210938 390 301.866210938 390 c 1
 431.639648438 390 476.4921875 645 550.866210938 645 c 0
 572.3203125 645 583.866210938 584.563476562 583.866210938 567 c 0
 583.866210938 476.900390625 475.866210938 401.662109375 475.866210938 369 c 0
 475.866210938 276.401367188 625.866210938 341.765625 625.866210938 273 c 0
 625.866210938 173.885742188 468.620117188 69 394.866210938 69 c 0
 370.749023438 69 331.866210938 288 331.866210938 288 c 1
 308.737304688 288 275.01953125 222 229.866210938 222 c 0
 193.376953125 222 172.298828125 250.264648438 148.866210938 276 c 0
 110.266601562 318.39453125 82.09765625 353.537109375 71.8662109375 412 c 0
 57.8662109375 492 133.326171875 525.755859375 131.866210938 517 c 0
 129.866210938 505 96.8662109375 483.26171875 96.8662109375 462 c 0
 96.8662109375 437.200195312 94.2900390625 423 118.866210938 423 c 0
 172.458984375 423 277.866210938 458.979492188 277.866210938 522 c 0xd0
 277.866210938 564.501953125 187.866210938 569.521484375 187.866210938 630 c 0
 187.866210938 653.959960938 221.368164062 675 244.866210938 675 c 0
 265.866210938 675 310.020507812 710.262695312 328.866210938 720 c 0xe0
EndSplineSet
EndChar

StartChar: d
Encoding: 100 100 69
Width: 747
Flags: MW
HStem: 153 21G<168.843 233.191> 186 60<335.7 343.191 331.954 363.581> 237 84<442.061 494.541> 240 90<634.236 638.765> 291 21<228.346 318.378> 405 12 648 66<183.882 197.443>
VStem: 91.5 84<593.143 601.291 589.934 644.118> 141.5 72<257.661 338.668> 237.5 60<469.908 509.913> 471.5 84<191.505 232.942> 505.5 20<373.009 380.706> 565.5 62<474.512 497.74 456.513 509.867>
LayerCount: 2
Fore
SplineSet
421.5 252 m 0xc668
 383.5 289 345.256835938 291 291.5 291 c 0
 275.095703125 291 276.881835938 153 189.5 153 c 0
 148.186523438 153 141.5 245.321289062 141.5 270 c 0xcee8
 141.5 354.385742188 237.5 396.704101562 237.5 483 c 0
 237.5 536.825195312 91.5 565.28515625 91.5 621 c 0
 91.5 667.235351562 121.1484375 714 165.5 714 c 0
 245.55078125 714 327.5 671.467773438 327.5 591 c 0
 327.5 572.319335938 276.520507812 582 265.5 582 c 0
 224.485351562 582 205.38671875 648 189.5 648 c 0
 178.263671875 648 175.5 605.58203125 175.5 597 c 0xcf48
 175.5 582.868164062 297.5 558.825195312 297.5 483 c 0
 297.5 456.815429688 247.5 433.83984375 247.5 405 c 2
 247.5 384 l 2
 247.5 357.532226562 213.5 350.336914062 213.5 327 c 0
 213.5 310.646484375 221.19140625 312 235.5 312 c 0xcec8
 294.50390625 312 302.568359375 393 345.5 393 c 1
 388.419921875 380.208007812 394.279296875 320.98046875 441.5 336 c 0
 471.87890625 345.662109375 464.612304688 321 487.5 321 c 0xa6c8
 501.581054688 321 505.5 344.370117188 505.5 360 c 0
 505.5 401.411132812 391.5 384.365234375 391.5 435 c 0
 391.5 458.932617188 413.223632812 474 429.5 474 c 0
 479.95703125 474 477.969726562 417 511.5 417 c 0
 542.66796875 417 565.5 457.024414062 565.5 492 c 0
 565.5 527.733398438 505.5 508.762695312 505.5 558 c 0
 505.5 567.76953125 506.993164062 591 523.5 591 c 0
 592.66015625 591 627.5 527.48046875 627.5 468 c 0
 627.5 445.025390625 594.669921875 405 571.5 405 c 2
 547.5 405 l 2
 535.848632812 405 525.5 392.25390625 525.5 387 c 0
 525.5 359.017578125 585.655273438 318 609.5 318 c 0
 623.224609375 318 624.97265625 330 643.5 330 c 0
 651.71875 330 655.5 266.533203125 655.5 258 c 0
 655.5 245.58203125 644.029296875 240 633.5 240 c 0x96d8
 607.567382812 240 575.041992188 288 553.5 288 c 0
 543.02734375 288 547.5 267.84375 547.5 264 c 0
 547.5 246.391601562 555.5 230.4609375 555.5 210 c 0
 555.5 173.009765625 550.96484375 159 513.5 159 c 0
 491.046875 159 463.5 176.495117188 463.5 198 c 0
 463.5 206.27734375 471.5 213.09375 471.5 228 c 0
 471.5 237.883789062 467.5859375 237 453.5 237 c 0xa668
 430.62109375 237 436.349609375 198 411.5 198 c 2
 391.5 198 l 2
 368.491210938 198 375.661132812 186 351.5 186 c 0
 319.900390625 186 309.5 203.3515625 309.5 234 c 0
 309.5 240.083984375 326.407226562 246 337.5 246 c 0
 348.8828125 246 444.5 229 421.5 252 c 0xc668
EndSplineSet
EndChar

StartChar: e
Encoding: 101 101 70
Width: 894
Flags: MW
HStem: 117 180<690.158 707.045> 147 108<110.702 196.61> 180 75<545.045 573.801> 426 123<601.844 622.559> 525 120 576 69 711 21G<188.045 188.045> 720 54<253.33 332.111>
VStem: 41.0449 48<280.734 354.158> 53.0449 36<280.734 306 306 311.229> 86.0449 213<568.966 574.685 525.375 635.213> 437.045 72
LayerCount: 2
Fore
SplineSet
425.044921875 630 m 1x4430
 485.044921875 639 l 1
 485.044921875 692.366210938 469.3125 691.239257812 422.044921875 690 c 0
 364.698242188 688.49609375 304.064453125 682.741210938 257.044921875 720 c 1x4530
 249.614257812 720 188.044921875 711 188.044921875 711 c 1x0230
 188.044921875 754.267578125 268.401367188 774 299.044921875 774 c 0
 365.177734375 774 671.044921875 757.966796875 671.044921875 690 c 0
 671.044921875 662.821289062 587.044921875 652.58984375 587.044921875 609 c 0
 587.044921875 586.159179688 586.642578125 549 617.044921875 549 c 0
 694.350585938 549 735.056640625 612 800.044921875 612 c 0
 822.796875 612 863.044921875 617.969726562 863.044921875 585 c 0
 863.044921875 510.873046875 649.072265625 426 596.044921875 426 c 0x1130
 521.1796875 426 547.384765625 525 485.044921875 525 c 2
 440.044921875 525 l 2x0830
 419.916992188 525 405.0625 576 368.044921875 576 c 2
 368.044921875 576 299.044921875 579.369140625 299.044921875 570 c 0
 299.044921875 480.750976562 509.795898438 459.69140625 509.044921875 342 c 0
 508.837890625 309.633789062 499.061523438 248.08984375 545.044921875 255 c 1x2430
 602.557617188 255 658.270507812 297 722.044921875 297 c 0
 740.534179688 297 827.044921875 302.426757812 827.044921875 276 c 0
 827.044921875 275.450195312 783.868164062 225.75 779.044921875 216 c 0
 761.053710938 179.6328125 753.552734375 127.4921875 707.044921875 117 c 1x8030
 642.747070312 117 639.455078125 180 581.044921875 180 c 0x2030
 488.165039062 180 409.08984375 123 326.044921875 123 c 0
 291.895507812 123 267.65234375 156 239.044921875 156 c 0
 221.16796875 156 205.17578125 147 188.044921875 147 c 0
 166.790039062 147 154.979492188 163.137695312 137.044921875 171 c 0
 92.787109375 190.400390625 52.7578125 209.484375 53.044921875 270 c 2
 53.044921875 306 l 2x4050
 53.044921875 316.45703125 41.044921875 322.299804688 41.044921875 336 c 0
 41.044921875 372.31640625 38.056640625 423.184570312 47.044921875 459 c 0
 53.7783203125 485.833007812 25.115234375 500.497070312 32.044921875 528 c 0
 32.044921875 534.041015625 37.6376953125 591 41.044921875 591 c 0
 62.5888671875 591 254.044921875 423 254.044921875 423 c 1
 254.044921875 387 l 2
 254.044921875 342.989257812 296.044921875 305.610351562 296.044921875 285 c 0
 296.044921875 276.778320312 295.028320312 279 287.044921875 279 c 0
 246.03515625 279 233.044921875 399 233.044921875 399 c 1
 198.000976562 399 89.044921875 341.654296875 89.044921875 309 c 0x4090
 89.044921875 252.46875 78.3583984375 255 143.044921875 255 c 0
 185.307617188 255 437.044921875 248.603515625 437.044921875 327 c 0
 437.044921875 486.672851562 86.044921875 522.931640625 86.044921875 615 c 0
 86.044921875 655.426757812 139.627929688 645 179.044921875 645 c 0
 265.515625 645 342.309570312 624.19921875 425.044921875 630 c 1x4430
EndSplineSet
EndChar

StartChar: f
Encoding: 102 102 71
Width: 1410
Flags: MW
HStem: 174 248<362.871 531.897> 222 21G<1170.3 1187.37> 450 56<830.296 910.296>
VStem: 1074.3 120<454.194 483.904>
LayerCount: 2
Fore
SplineSet
1054.29589844 506 m 0x70
 967.295898438 568 879.303710938 530 850.295898438 530 c 0
 822.888671875 530 698.295898438 528.704101562 698.295898438 470 c 0
 698.295898438 373.9296875 854.295898438 359.102539062 854.295898438 266 c 0
 854.295898438 208.926757812 442.114257812 174 390.295898438 174 c 0
 335.446289062 174 358.295898438 382.239257812 358.295898438 422 c 0
 358.295898438 459.739257812 347.005859375 570 306.295898438 570 c 2
 286.295898438 570 l 2
 275.494140625 570 214.295898438 590.255859375 214.295898438 594 c 0
 214.295898438 629.78515625 328.818359375 678 358.295898438 678 c 0
 416.182617188 678 468.809570312 422 518.295898438 422 c 0xb0
 545.498046875 422 561.137695312 690 598.295898438 690 c 1
 640.015625 697.33984375 682.26953125 702.2421875 730.295898438 698 c 0
 1098.34472656 665.490234375 1194.29589844 709.286132812 1194.29589844 278 c 0
 1194.29589844 248.2265625 1204.43945312 222 1170.29589844 222 c 1
 1088.97265625 236.559570312 1036.578125 322.809570312 978.295898438 378 c 0
 940.858398438 413.450195312 918.146484375 450 862.295898438 450 c 2
 830.295898438 450 l 2
 822.82421875 450 826.295898438 461.041015625 826.295898438 466 c 0
 826.295898438 478.002929688 896.5234375 506 910.295898438 506 c 1
 947.540039062 517.71484375 961.940429688 474.909179688 986.295898438 458 c 0
 1006.03125 444.297851562 1014.92773438 418 1046.29589844 418 c 0
 1073.89550781 418 1074.29589844 442.388671875 1074.29589844 466 c 0
 1074.29589844 501.807617188 1068.72558594 495.715820312 1054.29589844 506 c 0x70
EndSplineSet
EndChar

StartChar: g
Encoding: 103 103 72
Width: 637
Flags: MW
HStem: 252 108<177.814 191.713> 264 168<451.584 470.938 430.099 472.069> 620 44<295.425 358.259>
VStem: 62.6143 56 152.614 134<443.34 617.022>
LayerCount: 2
Fore
SplineSet
62.6142578125 414 m 0xb8
 63.9482421875 434.666015625 75.9482421875 445.999023438 98.6142578125 448 c 0
 112.622070312 449.236328125 118.614257812 429.4453125 118.614257812 422 c 2
 118.614257812 408 l 2
 118.614257812 377.751953125 167.014648438 360 188.614257812 360 c 0xb8
 196.834960938 360 204.614257812 372.629882812 204.614257812 380 c 0
 204.614257812 413.013671875 152.614257812 422.6796875 152.614257812 464 c 0
 152.614257812 476.044921875 158.209960938 492 172.614257812 492 c 2
 182.614257812 492 l 2
 196.44921875 492 208.614257812 493.567382812 208.614257812 510 c 0
 208.614257812 542.104492188 156.614257812 552.2109375 156.614257812 584 c 0
 156.614257812 644.47265625 272.236328125 664 318.614257812 664 c 0
 364.913085938 664 468.614257812 693.73828125 468.614257812 630 c 0
 468.614257812 620.573242188 473.408203125 596 456.614257812 596 c 0
 436.471679688 596 371.903320312 620 344.614257812 620 c 0
 339.563476562 620 286.614257812 628.044921875 286.614257812 606 c 0
 286.614257812 519.46875 399.583984375 432 460.614257812 432 c 0
 481.262695312 432 574.614257812 538 574.614257812 538 c 1
 574.614257812 522.962890625 560.614257812 507.765625 560.614257812 494 c 2
 560.614257812 456 l 2
 560.614257812 430.407226562 544.614257812 403.466796875 544.614257812 376 c 2
 544.614257812 346 l 2
 544.614257812 334.463867188 514.614257812 244 514.614257812 244 c 1
 493.596679688 244 481.5234375 264 462.614257812 264 c 0x78
 440.5546875 264 415.856445312 248 394.614257812 248 c 0
 342.326171875 248 333.877929688 314 300.614257812 314 c 0
 264.444335938 314 210.811523438 252 172.614257812 252 c 0
 105.12890625 252 58.7158203125 353.619140625 62.6142578125 414 c 0xb8
EndSplineSet
EndChar

StartChar: h
Encoding: 104 104 73
Width: 983
Flags: MW
HStem: 184 21G<689.098 739.948> 316 180<300.078 572.845> 328 90<82.6382 194.18 84.2041 194.18> 442 207<798.204 800.818 798.204 826.103>
LayerCount: 2
Fore
SplineSet
105.204101562 328 m 1xa0
 84.2041015625 328 l 2
 81.072265625 328 75.2041015625 326.040039062 75.2041015625 331 c 0
 75.2041015625 373.21875 115.24609375 418 156.204101562 418 c 0xa0
 232.155273438 418 266.951171875 496 333.204101562 496 c 0xc0
 374.279296875 496 524.930664062 476.455078125 561.204101562 463 c 0
 715.833984375 405.643554688 671.668945312 652.015625 798.204101562 649 c 0
 803.431640625 649 867.204101562 650.1484375 867.204101562 640 c 0
 867.204101562 616.422851562 846.204101562 588.986328125 846.204101562 559 c 0
 846.204101562 495.96875 906.204101562 428.498046875 906.204101562 352 c 0
 906.204101562 344.633789062 916.392578125 265 885.204101562 265 c 0
 866.55859375 265 854.000976562 442 798.204101562 442 c 0x90
 767.629882812 442 708.204101562 363.712890625 708.204101562 340 c 0
 708.204101562 284.248046875 795.204101562 310.419921875 795.204101562 253 c 0
 795.204101562 210.032226562 762.69140625 184 717.204101562 184 c 0
 660.9921875 184 614.486328125 316 531.204101562 316 c 0xc0
 423.908203125 316 318.263671875 292 210.204101562 292 c 0
 182.638671875 292 123.450195312 319.325195312 105.204101562 328 c 1xa0
EndSplineSet
EndChar

StartChar: i
Encoding: 105 105 74
Width: 945
Flags: MW
HStem: 87 21G<304.064 352.378> 144 9
VStem: 282.5 456<283.591 396 283.591 428.581> 612.5 98
LayerCount: 2
Fore
SplineSet
608.5 489 m 1xa0
 612.5 555 l 1
 632.705078125 564.24609375 637.520507812 582 672.5 582 c 0
 698.54296875 582 710.5 507.21875 710.5 480 c 2
 710.5 426 l 2x90
 710.5 387.177734375 738.5 356.993164062 738.5 309 c 0
 738.5 258.182617188 690.5 261.495117188 690.5 213 c 0
 690.5 174.545898438 750.5 186.466796875 750.5 153 c 0
 750.5 128.299804688 720.748046875 129 698.5 129 c 0
 656.005859375 129 590.626953125 144.541992188 546.5 144 c 0
 511.092773438 143.565429688 505.102539062 141.697265625 470.5 153 c 1x60
 419.188476562 153 374.255859375 87 330.5 87 c 0
 277.627929688 87 194.5 97.99609375 194.5 168 c 0
 194.5 205.301757812 258.5 204.921875 258.5 237 c 2
 258.5 270 l 2
 258.5 294.319335938 282.5 305.2109375 282.5 336 c 2
 282.5 396 l 2
 282.5 461.161132812 478.221679688 476.37109375 421.5 527 c 0
 403.30078125 543.244140625 570.99609375 530.020507812 608.5 489 c 1xa0
EndSplineSet
EndChar

StartChar: j
Encoding: 106 106 75
Width: 982
Flags: MW
HStem: 128 390<359.974 365.683> 226 172<606.5 647.385> 682 21G<130.062 196.124>
LayerCount: 2
Fore
SplineSet
477.5 604 m 0xa0
 509.5 590 432.97265625 579.510742188 390.5 578 c 0
 363.286132812 577.032226562 305.225585938 580.228515625 306.5 548 c 0
 306.5 522.302734375 353.447265625 518 366.5 518 c 0xa0
 426.227539062 518 480.44921875 574 543.5 574 c 0
 550.5 574 557.5 578 564.5 578 c 0
 683.35546875 578 675.458984375 754 831.5 754 c 0
 855.169921875 754 876.5 756.138671875 876.5 734 c 0
 876.5 685.392578125 774.5 730.33203125 774.5 686 c 2
 774.5 668 l 2
 774.5 550.475585938 555.5 531.564453125 555.5 458 c 0
 555.5 420.703125 565.146484375 398 606.5 398 c 2
 669.5 398 l 2
 719.842773438 398 867.5 346.112304688 867.5 286 c 0
 867.5 267.866210938 840.823242188 160 816.5 160 c 0
 744.225585938 160 670.26953125 226 624.5 226 c 0x60
 490.596679688 226 424.865234375 128 306.5 128 c 0
 228.662109375 128 132.5 248.098632812 132.5 326 c 0
 132.5 374.861328125 252.5 375.728515625 252.5 442 c 0
 252.5 494.997070312 105.5 505.35546875 105.5 574 c 0
 105.5 614.361328125 106.623046875 682 153.5 682 c 0
 238.747070312 682 358.5 656 477.5 604 c 0xa0
EndSplineSet
EndChar

StartChar: k
Encoding: 107 107 76
Width: 989
Flags: MW
HStem: 170 21G<309.875 451.453> 332 206<497.652 717.826 605.269 620.5> 610 112
LayerCount: 2
Fore
SplineSet
251.5 362 m 0
 393.725585938 383.609375 530.037109375 538 680.5 538 c 0
 755.15234375 538 830.5 416.578125 830.5 340 c 0
 830.5 294.713867188 772.12109375 196 707.5 196 c 0
 662.119140625 196 696.157226562 332 620.5 332 c 2
 578.5 332 l 2
 416.803710938 332 537.405273438 170 365.5 170 c 0
 254.250976562 170 155.5 309.788085938 155.5 406 c 0
 155.5 656.772460938 604.036132812 722 767.5 722 c 0
 795.59765625 722 833.5 643.935546875 833.5 626 c 0
 833.5 601.33203125 755.899414062 604 740.5 604 c 0
 686.203125 604 640.42578125 574 593.5 574 c 0
 564.909179688 574 564.42578125 596 539.5 596 c 0
 532.178710938 596 520.98046875 610 509.5 610 c 0
 487.63671875 610 446.484375 566 437.5 566 c 0
 361.912109375 555.654296875 342.328125 486.6953125 275.5 472 c 0
 217.607421875 459.26953125 241.13671875 360.42578125 251.5 362 c 0
EndSplineSet
EndChar

StartChar: l
Encoding: 108 108 77
Width: 953
Flags: MW
HStem: 113 222<632.5 787.99> 128 21G<273.589 335.161> 518 102<443.186 450.218 410.5 476.624> 545 30
VStem: 149.5 117<429.367 526.756> 344.5 150<546.514 608.638>
LayerCount: 2
Fore
SplineSet
308.5 575 m 1x5c
 326.5 575 l 2x5c
 333.647460938 575 344.5 574.225585938 344.5 581 c 0
 344.5 636.276367188 278.5 632.34375 278.5 683 c 0
 278.5 704.56640625 276.734375 719 299.5 719 c 0
 357.931640625 719 397.96875 620 410.5 620 c 2
 434.5 620 l 2
 465.936523438 620 494.5 585.513671875 494.5 557 c 0
 494.5 536.028320312 491.748046875 518 461.5 518 c 0x2c
 424.87109375 518 406.946289062 545 371.5 545 c 0
 342.44140625 545 266.5 544.512695312 266.5 509 c 0
 266.5 471.415039062 464.5 410 464.5 410 c 1
 629.400390625 410 602.024414062 671 785.5 671 c 0
 796.965820312 671 833.5 615.608398438 833.5 611 c 0
 833.5 511.495117188 629.5 491.856445312 629.5 386 c 0
 629.5 385.115234375 627.717773438 335 632.5 335 c 2
 683.5 335 l 2
 717.823242188 335 851.5 310.08203125 851.5 275 c 0
 851.5 237.84765625 814.48046875 113 761.5 113 c 0x9c
 684.264648438 113 623.115234375 179 548.5 179 c 0
 461.264648438 179 376.822265625 128 293.5 128 c 0
 253.677734375 128 101.5 105.403320312 101.5 179 c 0
 101.5 252.572265625 263.5 242.051757812 263.5 299 c 0
 263.5 341.430664062 149.5 394.734375 149.5 464 c 0
 149.5 502.599609375 148.05078125 614 212.5 614 c 0
 233.250976562 614 291.5 614 308.5 575 c 1x5c
EndSplineSet
EndChar

StartChar: m
Encoding: 109 109 78
Width: 909
Flags: MW
HStem: 181 21G<318.912 351.189> 526 33 559 21<244.283 265.88> 695 20G<352.912 445.708>
VStem: 132.912 172<436.353 468.025> 274.912 224<219.185 355.282> 748.912 96
LayerCount: 2
Fore
SplineSet
286.912109375 493 m 0xda
 312.912109375 508 284.84765625 559 246.912109375 559 c 0
 241.654296875 559 205.208007812 556 192.912109375 556 c 0
 165.255859375 556 64.912109375 572.323242188 64.912109375 613 c 0
 64.912109375 633.094726562 54.984375 646 82.912109375 646 c 0
 144.018554688 646 205.001953125 580 280.912109375 580 c 0
 293.438476562 580 388.912109375 595.1875 388.912109375 610 c 0
 388.912109375 617.091796875 340.912109375 650.388671875 340.912109375 673 c 0
 340.912109375 683.17578125 340.912109375 715 364.912109375 715 c 0
 526.504882812 715 491.98046875 559 598.912109375 559 c 0xba
 634.038085938 559 624.416992188 619 688.912109375 619 c 2
 688.912109375 619 808.912109375 625.35546875 808.912109375 613 c 2
 808.912109375 562 l 1
 808.912109375 562 844.912109375 523.952148438 844.912109375 487 c 0
 844.912109375 364.624023438 868.48828125 17.611328125 672.912109375 34 c 0
 604.438476562 39.73828125 426.231445312 -4.2236328125 444.912109375 127 c 0
 444.912109375 151.696289062 544.469726562 253 556.912109375 253 c 1
 556.912109375 253 551.83203125 79 660.912109375 79 c 0
 740.916015625 79 748.912109375 160.001953125 748.912109375 223 c 0
 748.912109375 354.54296875 538.111328125 526 438.912109375 526 c 0
 400.211914062 526 304.912109375 500.271484375 304.912109375 448 c 0xda
 304.912109375 411.038085938 303.166015625 385 340.912109375 385 c 0
 382.014648438 385 498.912109375 391.563476562 498.912109375 319 c 0
 498.912109375 252.225585938 383.465820312 181 318.912109375 181 c 2
 318.912109375 181 228.912109375 175.34765625 228.912109375 184 c 0
 228.912109375 209.287109375 274.912109375 203.370117188 274.912109375 235 c 0xd6
 274.912109375 309.41796875 132.912109375 412.705078125 132.912109375 460 c 0
 132.912109375 476.05078125 130.965820312 502 150.912109375 502 c 0
 192.034179688 502 240.912109375 466 286.912109375 493 c 0xda
EndSplineSet
EndChar

StartChar: n
Encoding: 110 110 79
Width: 1396
Flags: MW
HStem: 159 21G<368.098 437.238> 219 192<968.208 976 976 1012.13 932 1061.39> 319 148<748 780 780 802.602 748 817.866> 535 68<561.529 596.319 584 596.319 584 632>
VStem: 204 192<538.699 577.406 538.699 634.5> 380 156<348.571 507.535>
LayerCount: 2
Fore
SplineSet
444 651 m 1xb8
 432.849609375 642.985351562 396 583.811523438 396 571 c 0xb8
 396 506.397460938 448.920898438 544.196289062 480 555 c 0
 512.422851562 566.270507812 543.62109375 600.83984375 584 603 c 0
 608.637695312 603 684 591.629882812 684 563 c 0
 684 541.31640625 649.02734375 535 632 535 c 2
 576 535 l 2
 547.057617188 535 536 520.069335938 536 495 c 0
 536 488.877929688 532.026367188 451 544 451 c 0
 564.943359375 451 581.818359375 475 604 475 c 0
 632.151367188 475 603.3515625 423 624 423 c 0
 659.678710938 423 707.3125 467 748 467 c 2
 780 467 l 2xb4
 825.203125 467 870.583984375 495 912 495 c 0
 921.700195312 495 924 494.799804688 924 495 c 1
 924 485.268554688 902.403320312 411 932 411 c 2
 976 411 l 2
 1048.25683594 411 1192 381.71484375 1192 291 c 0
 1192 180.58984375 1110.78515625 219 1012 219 c 0xd4
 924.415039062 219 875.732421875 319 760 319 c 0
 618.600585938 319 478.4765625 159 396 159 c 0xb8
 340.1953125 159 216 204.290039062 216 275 c 0
 216 305.782226562 380 302.141601562 380 395 c 0xb4
 380 478.12109375 204 488.163085938 204 583 c 0
 204 685.999023438 348.87890625 594.766601562 400 651 c 0
 450 706 444 651 444 651 c 1xb8
EndSplineSet
EndChar

StartChar: o
Encoding: 111 111 80
Width: 1068
Flags: MW
HStem: -74 87<685.5 693.875> 41 87 151 225<147.825 271.001> 193 78<489.851 635.761 543.259 604.5> 466 117<622.995 628.5 628.5 643.207 600.419 694.5> 647 20G<545.588 587.063>
VStem: 709.5 237<12.8999 117.923> 871.5 72<567.331 647.004>
LayerCount: 2
Fore
SplineSet
676.5 -74 m 0xde
 553.455078125 -74 517.5 112 284.5 41 c 0
 263.62109375 34.6376953125 344.94140625 120.098632812 374.5 128 c 0
 475.5 155 632.6328125 13 685.5 13 c 0
 704.799804688 13 709.5 12.7998046875 709.5 13 c 0
 709.5 26.662109375 610.6171875 193 604.5 193 c 2
 517.5 193 l 2xde
 462.202148438 193 454.5 280 454.5 280 c 1
 390.044921875 280 312.501953125 151 229.5 151 c 0
 163.4296875 151 82.5 326.861328125 82.5 400 c 0
 82.5 433.678710938 107.545898438 577 142.5 577 c 1
 142.5 577 126.149414062 376 169.5 376 c 0
 204.830078125 376 325.5 399.275390625 325.5 445 c 0
 325.5 521.403320312 145.280273438 529 349.5 529 c 0
 358.500976562 529 366.5 503 376.5 487 c 0
 384.5 474 384.578125 454 397.5 454 c 0
 430.291992188 454 519.67578125 667 571.5 667 c 0
 602.626953125 667 575.337890625 583 625.5 583 c 0
 660.9140625 583 668.954101562 622 706.5 622 c 1
 706.5 613 l 1
 745.083007812 613 780.834960938 676 826.5 676 c 0
 876.494140625 676 943.5 681.0078125 943.5 613 c 0
 943.5 598.221679688 945.44140625 532 925.5 532 c 0
 888.251953125 532 871.5 573.43359375 871.5 592 c 1xed
 871.5 542.662109375 726.168945312 466 694.5 466 c 2
 628.5 466 l 2
 617.490234375 466 514.5 431.625976562 514.5 391 c 0
 514.5 385.194335938 533.018554688 271 553.5 271 c 0
 718.022460938 271 735.793945312 412 853.5 412 c 0
 868.844726562 412 985.5 388.806640625 985.5 358 c 0
 985.5 292.703125 856.5 283.974609375 856.5 175 c 0
 856.5 169.004882812 946.5 138.846679688 946.5 97 c 0
 946.5 21.763671875 896.43359375 -53 808.5 -53 c 2
 781.5 -53 l 2
 743.989257812 -53 711.25 -74 676.5 -74 c 0xde
EndSplineSet
EndChar

StartChar: p
Encoding: 112 112 81
Width: 1129
Flags: MW
HStem: 76 21G<568.079 613.818> 88 66<739.162 761.255 739.162 770.653> 124 96<394.384 511.7> 230 66<693.937 697.712 660.896 732.951> 364 48<749.195 845.155> 502 64<533 569.153> 548 8 628 100<621.604 639.558 621.604 649.854> 638 96
VStem: 110 150<153.816 250.386> 479 54<228.146 229.051 205.752 241.836> 740 63<491.168 507.255 463.681 545.536> 866 123<649.695 714.754> 875 99<463.057 511.329> 920 72<556.975 587.51> 923 51<428 483.245> 926 93<343.305 396.289>
LayerCount: 2
Fore
SplineSet
410 520 m 0xb878
 420.266601562 516.05078125 437 511.942382812 437 530 c 0
 437 547.393554688 385.915039062 551.506835938 365 548 c 0
 325.459960938 541.370117188 194.569335938 576.6015625 308 578 c 0
 343.150390625 578 376.380859375 556 407 556 c 0xba78
 426.483398438 556 422.103515625 614 443 614 c 0
 462.489257812 614 476.162109375 572 497 572 c 0
 507.853515625 572 524.567382812 566 533 566 c 2
 572 566 l 2
 621.763671875 566 656.247070312 482 671 482 c 1
 671 482 677.286132812 500 683 500 c 0
 692.342773438 500 697.828125 448 725 448 c 0
 744.7734375 448 740 482.3359375 740 500 c 0
 740 591.071289062 697.708984375 628 602 628 c 0x1d78
 569.080078125 628 535.725585938 664 521 664 c 0
 485.352539062 664 468.315429688 638 431 638 c 2
 377 638 l 2
 344.442382812 638 307.009765625 620 275 620 c 0
 243.134765625 620 263.2734375 646 254 646 c 0
 243.607421875 646 236.536132812 650 227 650 c 2
 227 650 167 635.62890625 167 656 c 0
 167 689.313476562 256.022460938 697.396484375 284 704 c 0
 320.768554688 712.677734375 361.81640625 738.635742188 407 734 c 1x18f8
 455.993164062 739.127929688 514.70703125 718.65625 557 748 c 1
 582.702148438 748 608.208984375 728 635 728 c 0
 644.115234375 728 654.477539062 724 665 724 c 0
 725.071289062 724 869 667.904296875 869 596 c 0
 869 545.748046875 803 538.510742188 803 476 c 0
 803 451.362304688 806.905273438 412 839 412 c 0
 851.309570312 412 923 428 923 428 c 1x1971
 923 453.126953125 875 481.618164062 875 500 c 0x1974
 875 522.657226562 920 545.94921875 920 568 c 0x1972
 920 607.01953125 866 643.390625 866 656 c 0x1978
 866 687.71875 882.594726562 728 923 728 c 0x1971
 934.201171875 728 989 725.5078125 989 704 c 0x1978
 989 655.515625 992 614.41796875 992 572 c 0x1972
 992 534.896484375 974 496.490234375 974 470 c 0x1974
 974 456.11328125 1019 412.578125 1019 380 c 0x197080
 1019 354.784179688 974.038085938 311.299804688 962 296 c 0
 937.569335938 264.951171875 920.603515625 214.357421875 875 226 c 1x1974
 848.868164062 226 835.643554688 244 809 244 c 0
 777.709960938 244 749.901367188 230 716 230 c 0
 671.873046875 230 602 229.104492188 602 296 c 0
 602 305.522460938 609.365234375 320 629 320 c 0
 635.743164062 320 647.791992188 296 674 296 c 0
 721.423828125 296 926 330.610351562 926 356 c 0x197080
 926 356.025390625 911.099609375 358 911 358 c 0
 860.526367188 358 816.3046875 364 767 364 c 0
 731.389648438 364 694.109375 352 665 352 c 0
 588.044921875 352 629.306640625 502 509 502 c 0
 494.853515625 502 500 492.016601562 500 482 c 0
 500 449.290039062 504.189453125 443.791015625 515 418 c 0
 531.30078125 379.112304688 555.381835938 335.95703125 554 286 c 0
 554 265.692382812 533 244.102539062 533 214 c 0
 533 197.50390625 605 219.099609375 605 202 c 0
 605 181.025390625 590 162.739257812 590 140 c 1
 590 156.783203125 723.32421875 154 755 154 c 0
 767.509765625 154 866 161.583007812 866 148 c 0
 866 91.7880859375 792.305664062 88 749 88 c 0x5d78
 692.873046875 88 640.63671875 76 587 76 c 0
 549.157226562 76 539 136 539 136 c 1
 522.200195312 136 526.400390625 124 497 124 c 0
 393.268554688 124 365 166.435546875 365 256 c 0
 365 273.313476562 358.86328125 316 374 316 c 0
 382.763671875 316 378.767578125 220 410 220 c 0
 423.776367188 220 479 220.291992188 479 236 c 0
 479 247.671875 438.672851562 490 416 490 c 0
 400.294921875 490 388.625 344 353 344 c 0
 328.540039062 344 343.779296875 394 335 394 c 0
 308.58984375 394 277.368164062 302 275 302 c 1
 291.36328125 302 304.040039062 322 326 322 c 0
 326.013671875 322 338 290.002929688 338 290 c 0
 338 267.1171875 260 258.772460938 260 242 c 0
 260 230 254.666992188 226 272 226 c 0
 282.1796875 226 317 229.486328125 317 224 c 0
 317 149.888671875 224 121.211914062 224 112 c 1
 224 130.052734375 239 161.450195312 239 166 c 1
 239 166 110 131.6328125 110 176 c 0
 110 256.525390625 278 325.569335938 278 398 c 0
 278 405.666015625 176 403.638671875 176 424 c 0
 176 503.682617188 384 509 335 526 c 0
 279.64453125 545.205078125 384 530 410 520 c 0xb878
EndSplineSet
EndChar

StartChar: q
Encoding: 113 113 82
Width: 1181
Flags: MW
HStem: 521 129<508.336 544.975> 666 20G<487.336 492.606>
LayerCount: 2
Fore
SplineSet
1075.3359375 248 m 1
 1071.30761719 250.374023438 1030.61425781 281 1018.3359375 281 c 2
 1000.3359375 281 l 2
 940.172851562 281 844.430664062 494 745.3359375 494 c 0
 725.243164062 494 701.46484375 485 679.3359375 485 c 0
 659.900390625 485 629.952148438 506 619.3359375 506 c 2
 553.3359375 506 l 2
 548.087890625 506 548.61328125 521 541.3359375 521 c 0
 450.416015625 521 398.135742188 416 325.3359375 416 c 0
 317.802734375 416 327.203125 431 322.3359375 431 c 0
 250.860351562 431 128.611328125 170.765625 106.3359375 311 c 0
 98.435546875 360.741210938 162.614257812 384.014648438 169.3359375 434 c 1
 169.3359375 474.079101562 192.162109375 486.94921875 223.3359375 509 c 0
 321.91796875 578.73046875 368.884765625 661.325195312 487.3359375 686 c 0
 497.876953125 686 499.065429688 650 508.3359375 650 c 0
 545.25 650 590.6875 641.733398438 625.3359375 650 c 0
 687.856445312 664.916992188 751.159179688 665.869140625 775.3359375 605 c 1
 816.705078125 605 849.487304688 626 886.3359375 626 c 0
 926.563476562 626 941.145507812 497 976.3359375 497 c 2
 1012.3359375 497 l 1
 1051.93359375 436.28125 1027.5234375 301.543945312 1075.3359375 248 c 1
EndSplineSet
EndChar

StartChar: r
Encoding: 114 114 83
Width: 803
Flags: MW
HStem: 487 179.813 498.154 6.84961 565 15<320.595 332.556> 574 93.0039<376.626 380.193> 574 114.004<370.808 380.193> 631 81<79 79.001> 655.882 11.082 666.814 9.18945 675.607 21G 700.004 3<214.847 219.999 150.999 231.766>
VStem: 97 30<553.087 588.278> 586 48.001<453.901 487>
LayerCount: 2
Fore
SplineSet
79 712 m 1x2430
 105.444335938 710.680664062 186.999023438 751.688476562 186.999023438 727.00390625 c 0
 186.999023438 727.002929688 186.997070312 727.00390625 177.999023438 727.00390625 c 1
 177.999023438 727.00390625 150.999023438 714.33984375 150.999023438 703.00390625 c 1
 219.999023438 703.00390625 l 1
 219.999023438 703.00390625 225.124023438 704.541015625 231.135742188 706.344726562 c 1
 224.877929688 703.235351562 218.694335938 700.00390625 210.999023438 700.00390625 c 1
 252.533203125 700.00390625 291.100585938 724.00390625 327.999023438 724.00390625 c 1
 319.7109375 724.00390625 228.999023438 674.1953125 228.999023438 655.00390625 c 1
 228.999023438 660.731445312 320.2890625 691.00390625 330.999023438 691.00390625 c 0
 335.814453125 691.00390625 364.299804688 703.00390625 375.999023438 703.00390625 c 1
 375.999023438 703.00390625 350.6171875 688.00390625 390.999023438 688.00390625 c 1x0870
 377.688476562 688.00390625 377.252929688 667.00390625 375.999023438 667.00390625 c 1
 385.624023438 667.00390625 394.853515625 671.528320312 403.581054688 675.607421875 c 1
 404.3046875 671.528320312 411.998046875 667.00390625 411.998046875 667.00390625 c 1x10b0
 431.419921875 667.00390625 455.078125 682.00390625 471.998046875 682.00390625 c 0
 472.899414062 682.00390625 457.502929688 664.00390625 489.998046875 664.00390625 c 0
 509.301757812 664.00390625 504.090820312 666.154296875 564.3046875 666.813476562 c 1
 543.037109375 659.328125 519.999023438 649.04296875 519.999023438 643.00390625 c 1
 519.999023438 643.03515625 588.08203125 659.62890625 622.942382812 668.120117188 c 1
 603.745117188 655.360351562 619 622.002929688 619 622.002929688 c 2
 619 619.426757812 591.71875 604.555664062 571.198242188 598.048828125 c 1
 580.393554688 599.533203125 593.024414062 601.001953125 607.000976562 601.001953125 c 1
 607.000976562 601.001953125 546.50390625 574.001953125 607.000976562 574.001953125 c 0
 619.987304688 574.001953125 683.19140625 595.001953125 697.000976562 595.001953125 c 1
 697.000976562 595.001953125 640.000976562 549.0859375 640.000976562 535.001953125 c 1
 640.000976562 535.004882812 685.000976562 543.716796875 685.000976562 547.001953125 c 1
 685.000976562 540.51171875 682.000976562 531.056640625 682.000976562 520.001953125 c 0
 682.000976562 503.020507812 690.438476562 498.248046875 699.75 498.151367188 c 1
 677.791992188 485.719726562 634.000976562 460.155273438 634.000976562 454.000976562 c 0
 634.000976562 453.80078125 646.000976562 453.901367188 646.000976562 454.000976562 c 1
 646.000976562 431.853515625 630.833984375 412.000976562 607.000976562 412.000976562 c 1
 607.010742188 412.000976562 627.28515625 446.768554688 627.982421875 447.96875 c 1
 627.85546875 447.916015625 626.857421875 448 619 448 c 0
 608.213867188 448 571 430 571 430 c 2
 566.185546875 430 568 430.421875 568 439 c 0
 568 454.59375 586 468.287109375 586 487 c 1
 586 486.999023438 556 485.16015625 556 475 c 1
 556 489.772460938 580 504.258789062 580 514 c 1
 580 512.78125 533.248046875 487 526 487 c 0x8030
 525.993164062 487 502 502 502 502 c 1
 502 529 l 2
 502 529.005859375 475.006835938 568 475 568 c 0
 472.029296875 568 461.420898438 553 457 553 c 0
 451.694335938 553 455.828125 568 454 568 c 0
 438.477539062 568 418.852539062 562 403 562 c 1
 403 562 387.385742188 574 373 574 c 0x1030
 348.283203125 574 343.111328125 565 322 565 c 1
 324.224609375 565 319.5546875 580 325 580 c 1
 316.189453125 580 296.592773438 565 295 565 c 2
 295 565 322 596.209960938 322 601 c 1
 322 600.799804688 302.700195312 601 298 601 c 2
 298 601 172 575.95703125 172 562 c 1
 172 573.991210938 238 588.193359375 238 601 c 1
 238 592.10546875 127 567.182617188 127 553 c 1
 127 553.173828125 129.924804688 577 130 577 c 1
 125.006835938 577 97 569.615234375 97 577 c 0
 97 599.555664062 163 609.484375 163 628 c 0
 163 628.001953125 160.001953125 637 160 637 c 0
 146.62890625 637 116.271484375 601 97 601 c 0
 92.185546875 601 94 601.421875 94 610 c 0
 94 617.172851562 112 627.806640625 112 637 c 1
 112 636.952148438 79.001953125 631 79 631 c 2
 79 712 l 1x2430
723.897460938 504.94921875 m 1
 722.671875 504.297851562 710.615234375 498.041992188 699.749023438 498.154296875 c 1
 707.096679688 502.314453125 712 505.00390625 712 505.00390625 c 1x4030
 720.568359375 505.00390625 723.362304688 504.84765625 723.897460938 504.94921875 c 1
723.897460938 504.94921875 m 1
 723.96484375 504.985351562 723.999023438 505.00390625 723.999023438 505.00390625 c 2
 723.999023438 504.98046875 723.967773438 504.962890625 723.897460938 504.94921875 c 1
622.942382812 668.12109375 m 1
 627.482421875 671.138671875 633.94921875 673.00390625 643 673.00390625 c 1
 642.993164062 673.00390625 634.932617188 671.041992188 622.942382812 668.12109375 c 1
570.473632812 655.881835938 m 1x0230
 573.916015625 657.802734375 579.254882812 662.557617188 584.434570312 666.963867188 c 0x0230
 590.451171875 666.990234375 596.95703125 667.00390625 604 667.00390625 c 1x1030
 601.970703125 667.00390625 578.275390625 658.6484375 570.473632812 655.881835938 c 1x0230
570.47265625 655.880859375 m 1
 568.924804688 655.33203125 568.001953125 655.00390625 567.999023438 655.00390625 c 1
 568.62890625 655.00390625 569.470703125 655.322265625 570.47265625 655.880859375 c 1
584.43359375 666.963867188 m 1
 577.008789062 666.931640625 570.329101562 666.880859375 564.3046875 666.814453125 c 1
 579.349609375 672.109375 593.5078125 676.00390625 597.998046875 676.00390625 c 1x0130
 595.348632812 676.00390625 589.983398438 671.684570312 584.43359375 666.963867188 c 1
403.580078125 675.607421875 m 1x00b0
 402.985351562 678.956054688 407.087890625 682.004882812 423.998046875 682.004882812 c 1
 417.5703125 682.004882812 410.744140625 678.956054688 403.580078125 675.607421875 c 1x00b0
231.134765625 706.344726562 m 1
 236.936523438 709.2265625 242.802734375 712.00390625 249.998046875 712.00390625 c 1
 249.997070312 712.00390625 239.670898438 708.905273438 231.134765625 706.344726562 c 1
EndSplineSet
EndChar

StartChar: s
Encoding: 115 115 84
Width: 912
Flags: MW
HStem: 81 21G<291.026 312.275> 96 132<441.072 453.867 420.086 458.213> 117 105<378.213 387.944>
VStem: 182.213 72
LayerCount: 2
Fore
SplineSet
182.212890625 687 m 0xb0
 170.044921875 745.965820312 254.212890625 605.836914062 254.212890625 552 c 0
 254.212890625 517.963867188 200.212890625 511.524414062 200.212890625 477 c 0
 200.212890625 470.50390625 297.845703125 339 305.212890625 339 c 0
 315.970703125 339 330.048828125 340.024414062 329.212890625 354 c 0
 326.1953125 404.418945312 375.514648438 322.243164062 377.212890625 294 c 0
 378.041015625 280.224609375 374.212890625 287.099609375 374.212890625 225 c 0
 374.212890625 220.299804688 376.212890625 222 380.212890625 222 c 0xb0
 395.67578125 222 411.959960938 228 428.212890625 228 c 0
 479.520507812 228 519.296875 141 554.212890625 141 c 0
 566.565429688 141 803.212890625 228 803.212890625 228 c 1
 803.212890625 173.9453125 562.059570312 90.19921875 533.212890625 84 c 0
 502.961914062 77.4990234375 482.315429688 90.2060546875 458.212890625 96 c 1x50
 423.931640625 96 401.229492188 117 377.212890625 117 c 0
 352.58984375 117 322.336914062 81 302.212890625 81 c 0
 279.83984375 81 262.831054688 222 260.212890625 222 c 0
 241.072265625 222 246.973632812 159 227.212890625 159 c 1
 227.212890625 159 230.887695312 171 200.212890625 171 c 0
 194.038085938 171 188.251953125 357 155.212890625 357 c 0
 145.684570312 357 119.470703125 333.041992188 113.212890625 327 c 0
 84.212890625 299 208.212890625 561 182.212890625 687 c 0xb0
EndSplineSet
EndChar

StartChar: t
Encoding: 116 116 85
Width: 884
Flags: MW
HStem: 89 21G<296.5 296.5> 614 30.002 692.002 21 723.002 20G<428.499 428.499>
LayerCount: 2
Fore
SplineSet
368.5 641 m 0
 437.936523438 669.82421875 466.288085938 692.294921875 347.499023438 692.001953125 c 0
 340.78515625 691.985351562 218.499023438 686.322265625 218.499023438 701.001953125 c 0
 218.499023438 713.681640625 267.806640625 713.001953125 272.499023438 713.001953125 c 2
 323.499023438 713.001953125 l 2
 348.380859375 713.001953125 428.499023438 743.001953125 428.499023438 743.001953125 c 1
 428.499023438 737.4140625 419.499023438 713.001953125 419.499023438 713.001953125 c 2
 419.520507812 713.001953125 557.499023438 751.96484375 557.499023438 752.001953125 c 1
 557.499023438 705.061523438 446.499023438 696.997070312 446.499023438 647.001953125 c 0
 446.499023438 634.701171875 468.310546875 644.321289062 476.499023438 644.001953125 c 0
 533.901367188 641.762695312 587.31640625 666.31640625 644.499023438 665.001953125 c 0
 661.399414062 665.001953125 665.499023438 664.801757812 665.499023438 665.001953125 c 1
 665.499023438 617.748046875 453.78515625 461.001953125 428.499023438 461.001953125 c 1
 443.719726562 461.001953125 569.499023438 500.001953125 569.499023438 500.001953125 c 1
 569.499023438 494.573242188 464.499023438 428.001953125 464.499023438 428.001953125 c 1
 512.770507812 428.001953125 563.736328125 467.001953125 605.499023438 467.001953125 c 0
 611.716796875 467.001953125 614.499023438 452.001953125 614.499023438 452.001953125 c 1
 614.499023438 424.764648438 464.499023438 314.001953125 464.499023438 314.001953125 c 1
 474.508789062 314.001953125 641.499023438 359.001953125 641.499023438 359.001953125 c 1
 641.499023438 301.856445312 524.499023438 268.532226562 524.499023438 215.001953125 c 1
 524.499023438 220.594726562 608.499023438 241.73046875 608.499023438 245.001953125 c 1
 608.499023438 209.46875 518.499023438 212.295898438 518.499023438 158.001953125 c 1
 518.499023438 161.662109375 662.499023438 193.940429688 662.499023438 194.001953125 c 1
 662.499023438 193.2890625 570.856445312 104.001953125 563.499023438 104.001953125 c 1
 563.499023438 104.001953125 567.930664062 107.692382812 572.395507812 111.412109375 c 1
 530.29296875 90.9326171875 356.5 57.0283203125 356.5 53 c 1
 356.5 62.71484375 443.5 122 443.5 122 c 1
 435.672851562 122 296.5 89 296.5 89 c 1
 296.5 146.845703125 539.5 201.018554688 539.5 263 c 1
 539.5 248.963867188 311.5 236.16015625 311.5 230 c 1
 311.5 255.869140625 377.5 264.31640625 377.5 284 c 1
 377.5 283.811523438 326.5 281 326.5 281 c 1
 326.5 332.274414062 497.5 340.260742188 497.5 404 c 1
 497.5 374.733398438 326.5 371 326.5 371 c 1
 326.5 402.881835938 419.5 428.544921875 419.5 449 c 1
 419.5 449 248.5 436.151367188 248.5 416 c 1
 248.5 460.55859375 512.5 614 512.5 614 c 1
 305.5 614 l 1
 323.7109375 629.174804688 347.588867188 632.319335938 368.5 641 c 0
EndSplineSet
EndChar

StartChar: u
Encoding: 117 117 86
Width: 1019
Flags: MW
HStem: 125 21G 182 80<655.113 712.956> 720 20G<670.323 670.323>
VStem: 235.323 63<285.229 306.479>
LayerCount: 2
Fore
SplineSet
223.323242188 392 m 0
 345.323242188 432 517.323242188 618.028320312 517.323242188 542 c 0
 517.323242188 476.330078125 421.323242188 449.134765625 421.323242188 388 c 0
 421.323242188 385.8203125 469.323242188 388 469.323242188 388 c 1
 469.323242188 374.258789062 298.323242188 339.252929688 298.323242188 304 c 0
 298.323242188 226.069335938 648.90234375 262 661.323242188 262 c 0
 676.2421875 262 697.323242188 272.74609375 697.323242188 280 c 0
 697.323242188 310.985351562 577.323242188 329.41796875 577.323242188 368 c 0
 577.323242188 368.016601562 682.323242188 436.513671875 682.323242188 454 c 0
 682.323242188 468.345703125 676.828125 479.251953125 670.323242188 489.334960938 c 1
 670.323242188 740 l 2
 670.323242188 524.271484375 898.323242188 420.087890625 898.323242188 220 c 1
 898.323242188 220 898.921875 104 886.323242188 104 c 0
 857.62890625 104 837.446289062 254 811.323242188 254 c 0
 811.321289062 254 806.364257812 182 805.323242188 182 c 0
 793.513671875 182 778.536132812 146 763.323242188 146 c 0
 743.891601562 146 725.587890625 182 700.323242188 182 c 0
 675.6484375 182 627.303710938 88 571.323242188 88 c 0
 524.892578125 88 536.368164062 214 499.323242188 214 c 0
 456.162109375 214 388.345703125 140 319.323242188 140 c 0
 281.5390625 140 245.046875 134 208.323242188 134 c 0
 181.98828125 134 139.323242188 241.872070312 139.323242188 272 c 0
 139.323242188 285.830078125 235.323242188 278.458007812 235.323242188 292 c 0
 235.323242188 320.958007812 121.323242188 342.159179688 121.323242188 382 c 0
 121.323242188 405.399414062 115.91015625 418 136.323242188 418 c 0
 177.94140625 418 189.323242188 381 223.323242188 392 c 0
670.323242188 489.334960938 m 1
 670.323242188 478 l 1
 670.323242188 478 649.323242188 460.3828125 649.323242188 536 c 1
 649.323242188 516.854492188 660.88671875 503.961914062 670.323242188 489.334960938 c 1
EndSplineSet
EndChar

StartChar: v
Encoding: 118 118 87
Width: 1320
Flags: MW
HStem: 195 21G<1048.75 1139.4> 333 93<805.66 819.871 714.407 894.952> 688 20G<207.71 244.617>
LayerCount: 2
Fore
SplineSet
268.5 540 m 2
 430.5 573 l 1
 469.5 573 l 2
 580.475585938 573 647.314453125 426 781.5 426 c 0
 858.241210938 426 915.4921875 486 991.5 486 c 0
 1121.68359375 486 1165.5 337.635742188 1165.5 237 c 0
 1165.5 187.150390625 1164.29589844 195 1114.5 195 c 0
 982.991210938 195 963.403320312 333 826.5 333 c 0
 784.8203125 333 769.5 328.290039062 769.5 288 c 0
 769.5 237.404296875 898.5 253.174804688 898.5 198 c 0
 898.5 136.291015625 713.315429688 144 676.5 144 c 0
 587.823242188 144 504.043945312 150 415.5 150 c 0
 382.462890625 150 316.5 166.157226562 316.5 210 c 0
 316.5 282.35546875 469.5 218.432617188 469.5 294 c 0
 469.5 414.201171875 154.5 407.921875 154.5 630 c 0
 154.5 681.602539062 182.920898438 708 232.5 708 c 0
 256.733398438 708 307.5 704.745117188 307.5 672 c 0
 307.5 650.44140625 301.004882812 655.844726562 292.5 636 c 1
 238.5 597 l 1
 215.483398438 570.456054688 228.5 533 268.5 540 c 2
EndSplineSet
EndChar

StartChar: w
Encoding: 119 119 88
Width: 1374
Flags: MW
HStem: 70 21G<434.256 494.267> 154 540<603.9 826.542>
LayerCount: 2
Fore
SplineSet
363 110 m 0
 347 163 402.755859375 226.678710938 403 246 c 0
 403.681640625 299.864257812 354.129882812 309.546875 335 354 c 0
 325.106445312 376.991210938 295 382.198242188 295 410 c 1
 436.639648438 501.689453125 509.14453125 709.599609375 699 686 c 0
 728.198242188 682.370117188 753.314453125 694 779 694 c 0
 874.083984375 694 1079 639.387695312 1079 510 c 1
 1004.90429688 455.130859375 801.150390625 501.891601562 855 334 c 0
 878.041015625 250.712890625 827.877929688 150.25390625 731 158 c 0
 706.12109375 159.989257812 671.321289062 154 643 154 c 0
 564.80078125 154 533.534179688 70 455 70 c 0
 413.51171875 70 374 72 363 110 c 0
EndSplineSet
EndChar

StartChar: x
Encoding: 120 120 89
Width: 1177
Flags: MW
HStem: 119 21G<986.143 1036.82> 128 375<883.411 914.316 828.004 947.954> 137 453
LayerCount: 2
Fore
SplineSet
99.5 524 m 2x20
 100.5 584 408.255859375 590 525.5 590 c 0x20
 644.711914062 590 761.508789062 503 894.5 503 c 0x40
 934.1328125 503 968.655273438 515 1005.5 515 c 0
 1088.39648438 515 1134.5 411.982421875 1134.5 344 c 0
 1134.5 275.286132812 1077.13085938 119 996.5 119 c 0x80
 975.786132812 119 959.408203125 128 936.5 128 c 0x40
 830.321289062 128 738.286132812 86 630.5 86 c 1
 584.2265625 79.8955078125 540.859375 100.368164062 495.5 113 c 1
 435.30078125 139.872070312 368.942382812 138.19140625 300.5 137 c 1
 172.467773438 95.91015625 43.29296875 194.802734375 42.5 329 c 0
 42.431640625 340.630859375 71.99609375 430.171875 90.5 410 c 1
 99.5 524 l 2x20
EndSplineSet
EndChar

StartChar: y
Encoding: 121 121 90
Width: 774
Flags: MW
HStem: 141 141<380.421 441.545 373.285 449.893> 186 21G<104.526 165.679> 210 138<558.148 599.437> 426 159<599.763 627.53 627.53 654.113>
VStem: 105.53 99 303.53 36<351.309 504.945>
LayerCount: 2
Fore
SplineSet
108.530273438 546 m 0x9c
 92.5302734375 531 132.946289062 501 141.530273438 501 c 2
 165.530273438 501 l 2
 209.286132812 501 246.530273438 472.471679688 246.530273438 429 c 0
 246.530273438 393.716796875 204.530273438 393.331054688 204.530273438 363 c 2
 204.530273438 336 l 2
 204.530273438 292.729492188 192.828125 186 138.530273438 186 c 0x5c
 70.521484375 186 115.77734375 331.036132812 105.530273438 360 c 0
 82.55859375 424.930664062 40.197265625 493.333007812 57.5302734375 564 c 1
 92.2822265625 586.98046875 70.6865234375 673.09765625 123.530273438 654 c 1
 196.959960938 639.168945312 290.252929688 596.848632812 351.530273438 660 c 1
 351.530273438 687.9453125 192.530273438 635.186523438 192.530273438 726 c 0
 192.530273438 761.708984375 275.767578125 763.852539062 300.530273438 759 c 0
 367.849609375 745.80859375 414.750976562 786.124023438 483.530273438 774 c 1
 528.046875 774 633.530273438 785.911132812 633.530273438 708 c 0
 633.530273438 680.94921875 519.530273438 705.598632812 519.530273438 648 c 0
 519.530273438 619.47265625 551.9921875 585 582.530273438 585 c 2
 627.530273438 585 l 2
 693.599609375 585 720.530273438 568.311523438 720.530273438 504 c 0
 720.530273438 462.389648438 674.696289062 426 633.530273438 426 c 0
 565.99609375 426 522.0859375 498 453.530273438 498 c 0
 394.521484375 498 339.530273438 440.984375 339.530273438 381 c 0
 339.530273438 321.618164062 341.040039062 282 405.530273438 282 c 0x9c
 477.560546875 282 524.766601562 348 591.530273438 348 c 0
 654.963867188 348 702.530273438 286.90234375 702.530273438 228 c 0
 702.530273438 216.265625 704.772460938 108 693.530273438 108 c 0
 672.670898438 108 622.34375 210 576.530273438 210 c 0x3c
 512.21875 210 488.255859375 141 411.530273438 141 c 0
 349.311523438 141 243.530273438 149.928710938 243.530273438 234 c 0
 243.530273438 325.79296875 303.530273438 394.958007812 303.530273438 477 c 0
 303.530273438 532.889648438 306.383789062 594 237.530273438 594 c 0
 190.970703125 594 147.530273438 583 108.530273438 546 c 0x9c
EndSplineSet
EndChar

StartChar: z
Encoding: 122 122 91
Width: 1250
Flags: MW
HStem: 39 150 438 6
VStem: 112.812 102<397.576 492.38> 394.812 252<360.915 373.576>
LayerCount: 2
Fore
SplineSet
298.8125 510 m 0
 412.8125 607 466.795898438 510 550.8125 510 c 1
 550.8125 510 853.8125 525.840820312 853.8125 483 c 0
 853.8125 436.228515625 646.8125 427.065429688 646.8125 372 c 0
 646.8125 349.830078125 787.18359375 354 808.8125 354 c 0
 904.725585938 354 1027.8125 352.16015625 1027.8125 474 c 0
 1027.8125 573.219726562 829.8125 570.92578125 829.8125 618 c 0
 829.8125 663.428710938 922.112304688 648 946.8125 648 c 0
 1175.62792969 648 1176.8125 309 1062.8125 252 c 0
 1023.02148438 232.104492188 1119.72949219 46.3447265625 1036.8125 39 c 0
 556.116210938 -3.580078125 289.8125 119.504882812 289.8125 132 c 0
 289.8125 172.53515625 470.38671875 189 508.8125 189 c 0
 599.97265625 189 717.130859375 126 820.8125 126 c 0
 843.442382812 126 895.8125 154.853515625 895.8125 180 c 0
 895.8125 329.036132812 394.8125 246.19921875 394.8125 339 c 0
 394.8125 408.15234375 471.555664062 390 517.8125 390 c 0
 547.184570312 390 565.8125 379.260742188 565.8125 411 c 0
 565.8125 442.161132812 429.958984375 438 403.8125 438 c 0
 285.451171875 438 270.521484375 264 160.8125 264 c 0
 110.944335938 264 112.8125 381.151367188 112.8125 414 c 0
 112.8125 478.1171875 188.749023438 660 259.8125 660 c 0
 293.678710938 660 316.8125 651.504882812 316.8125 612 c 0
 316.8125 566.140625 214.8125 531.760742188 214.8125 453 c 0
 214.8125 442.270507812 219.948242188 444 229.8125 444 c 0
 246.431640625 444 270.880859375 486.233398438 298.8125 510 c 0
EndSplineSet
EndChar

StartChar: braceleft
Encoding: 123 123 92
Width: 1170
Flags: MW
HStem: 150 21G<803.353 905.864> 357 354<621.09 866.448>
LayerCount: 2
Fore
SplineSet
99 729 m 1
 306 804 648 660 648 660 c 1
 903 378 757.653320312 711 813 711 c 0
 919.895507812 711 1122 358.077148438 1122 237 c 0
 1122 129.50390625 941.728515625 150 870 150 c 0
 736.706054688 150 762.282226562 357 678 357 c 0
 564.1796875 357 494.3359375 282 387 282 c 0
 248.506835938 282 -73.0302734375 515.827148438 99 537 c 0
 294 561 48 650.826171875 48 714 c 2
 48 723 l 1
 99 729 l 1
EndSplineSet
EndChar

StartChar: bar
Encoding: 124 124 93
Width: 853
Flags: MW
HStem: 651 33
VStem: 45.5 303<431.14 478.428 358.986 578.482>
LayerCount: 2
Fore
SplineSet
393.5 642 m 2
 419.926757812 640.817382812 433.946289062 654.353515625 444.5 672 c 0
 453.9140625 687.739257812 478.045898438 684.353515625 504.5 684 c 0
 546.706054688 683.436523438 593.059570312 688.215820312 633.5 672 c 1
 633.5 663.376953125 551.466796875 650.505859375 543.5 651 c 0
 510.111328125 653.072265625 419.1640625 612.508789062 498.5 621 c 1
 522.853515625 613.94140625 570.038085938 635.076171875 582.5 609 c 1
 582.5 521.365234375 348.5 539.85546875 348.5 417 c 0
 348.5 300.97265625 807.5 308.36328125 807.5 78 c 0
 807.5 17.7744140625 777.05078125 -75 705.5 -75 c 0
 562.752929688 -75 45.5 364.279296875 45.5 498 c 0
 45.5 658.96484375 160.106445312 642 288.5 642 c 2
 393.5 642 l 2
EndSplineSet
EndChar

StartChar: braceright
Encoding: 125 125 94
Width: 1214
Flags: MW
HStem: 87 81 132 108<387.057 422.716 387.057 457.917> 132 126<258.741 457.917> 342 174 354 132<923.5 924.249 840.417 941.373> 468 27
LayerCount: 2
Fore
SplineSet
239.5 528 m 1x44
 130.86328125 576.708984375 124.73828125 604.805664062 416.5 573 c 1
 632.5 570 l 1
 721.235351562 540.654296875 793.334960938 486 887.5 486 c 0x08
 960.997070312 486 1024.71289062 516 1097.5 516 c 0
 1139.16796875 516 1163.5 435.284179688 1163.5 402 c 0
 1163.5 339.233398438 1091.34570312 334.663085938 1046.5 342 c 0x10
 1007.56054688 348.37109375 959.245117188 354 923.5 354 c 1
 899.732421875 360.083007812 889.803710938 339.55859375 875.5 330 c 0
 833.775390625 302.1171875 806.45703125 267 752.5 267 c 0
 732.34375 267 714.98828125 276 698.5 276 c 0
 689.443359375 276 692.5 274.081054688 692.5 267 c 0
 703.830078125 178.857421875 802.581054688 151.196289062 881.5 168 c 0
 926.948242188 177.676757812 1052.5 175.423828125 1052.5 108 c 1
 1027.81835938 64.2568359375 951.65625 96.6025390625 908.5 87 c 0x88
 724.481445312 46.056640625 547.333007812 132 368.5 132 c 0
 287.416015625 132 211.431640625 111 131.5 111 c 0
 104.407226562 111 50.5 114.998046875 50.5 150 c 0
 50.5 238.647460938 226.981445312 258 290.5 258 c 0x20
 331.484375 258 366.61328125 240 407.5 240 c 0
 437.931640625 240 476.5 251.047851562 476.5 288 c 0
 476.5 344.873046875 374.5 337.026367188 374.5 363 c 0
 374.5 398.030273438 483.633789062 420 515.5 420 c 0
 533.383789062 420 547.170898438 408 563.5 408 c 0
 574.530273438 408 572.5 409.000976562 572.5 423 c 0
 572.5 494.9296875 431.317382812 468 389.5 468 c 0
 296.711914062 468.04296875 215.309570312 414.799804688 122.5 423 c 0
 84.294921875 426.375976562 74.5 421.073242188 74.5 471 c 0
 76.5966796875 519.049804688 138.143554688 529.362304688 179.5 531 c 0
 216.690429688 532.47265625 233.436523438 495 266.5 495 c 0
 283.940429688 495 276.188476562 504.19921875 284.5 513 c 1
 239.5 528 l 1x44
EndSplineSet
EndChar

StartChar: asciitilde
Encoding: 126 126 95
Width: 800
Flags: MW
HStem: 108 21G 198 312<341.029 510.896>
VStem: 611.5 132<576.168 580.316 502.99 634.227>
LayerCount: 2
Fore
SplineSet
137.5 621 m 1
 152.958984375 643.000976562 154.692382812 668.799804688 167.5 687 c 0
 186.5 714 292.557617188 510 389.5 510 c 0
 421.30078125 510 611.5 558.3359375 611.5 594 c 0
 611.5 674.454101562 368.5 625.78515625 368.5 717 c 0
 368.5 817.006835938 429.265625 855 521.5 855 c 0
 546.62890625 855 749.5 697.100585938 749.5 675 c 0
 749.5 636.58984375 743.5 599.6328125 743.5 561 c 0
 743.5 444.979492188 560.5 418.411132812 560.5 309 c 0
 560.5 253.174804688 686.5 298.461914062 686.5 210 c 0
 686.5 159.612304688 683.110351562 87 623.5 87 c 0
 544.006835938 87 548.291015625 198 473.5 198 c 0
 374.881835938 198 295.631835938 135 218.5 135 c 0
 162.419921875 135 68.5 230.252929688 68.5 285 c 0
 68.5 365.578125 221.5 369.233398438 221.5 423 c 0
 221.5 465.438476562 50.5 477.590820312 50.5 564 c 0
 50.5 599.6875 62.2685546875 621 104.5 621 c 2
 137.5 621 l 1
EndSplineSet
EndChar
